<?xml version="1.0" standalone="no"?>
<!DOCTYPE svg PUBLIC "-//W3C//DTD SVG 20010904//EN"
 "http://www.w3.org/TR/2001/REC-SVG-20010904/DTD/svg10.dtd">
<svg version="1.0" xmlns="http://www.w3.org/2000/svg"
 width="2000.000000pt" height="2000.000000pt" viewBox="0 0 2000.000000 2000.000000"
 preserveAspectRatio="xMidYMid meet">

<g transform="translate(0.000000,2000.000000) scale(0.100000,-0.100000)"
fill="#000000" stroke="none">
<path d="M8998 17813 c184 -2 481 -2 660 0 180 1 30 2 -333 2 -363 0 -510 -1
-327 -2z"/>
<path d="M8578 17803 c7 -3 16 -2 19 1 4 3 -2 6 -13 5 -11 0 -14 -3 -6 -6z"/>
<path d="M9990 17806 c0 -2 7 -7 16 -10 8 -3 12 -2 9 4 -6 10 -25 14 -25 6z"/>
<path d="M8498 17793 c7 -3 16 -2 19 1 4 3 -2 6 -13 5 -11 0 -14 -3 -6 -6z"/>
<path d="M8299 17693 l-24 -28 28 24 c15 14 27 26 27 28 0 8 -8 1 -31 -24z"/>
<path d="M10081 17674 c0 -11 3 -14 6 -6 3 7 2 16 -1 19 -3 4 -6 -2 -5 -13z"/>
<path d="M8192 17518 c-11 -29 -22 -69 -26 -88 -3 -19 7 3 23 50 32 94 34 122
3 38z"/>
<path d="M8152 17360 c0 -14 2 -19 5 -12 2 6 2 18 0 25 -3 6 -5 1 -5 -13z"/>
<path d="M8142 17295 c0 -16 2 -22 5 -12 2 9 2 23 0 30 -3 6 -5 -1 -5 -18z"/>
<path d="M8133 17150 c0 -36 2 -50 4 -32 2 17 2 47 0 65 -2 17 -4 3 -4 -33z"/>
<path d="M7752 15800 c-122 -17 -237 -71 -329 -155 l-58 -53 -50 28 c-27 16
-86 41 -130 56 -73 26 -93 28 -220 28 -156 1 -208 -11 -328 -70 -360 -179
-508 -607 -336 -974 16 -35 41 -79 54 -96 l25 -32 -24 -44 c-82 -147 -76 -360
12 -498 75 -117 171 -189 296 -225 46 -13 84 -16 165 -13 l106 5 64 -59 c123
-112 311 -178 465 -163 82 8 199 44 265 83 25 14 76 55 113 90 l67 64 48 -16
c26 -8 66 -17 88 -20 27 -4 19 0 -25 13 -36 10 -76 22 -89 28 -21 9 -31 3 -85
-51 -130 -130 -321 -193 -502 -166 -133 20 -264 89 -351 184 -41 44 -52 51
-73 45 -43 -12 -183 -9 -235 5 -259 69 -412 340 -334 592 11 37 32 85 46 107
l24 39 -24 37 c-152 230 -170 504 -47 740 71 136 184 242 334 312 189 89 468
75 638 -30 l49 -30 57 57 c67 65 148 116 230 145 81 27 237 34 326 13 156 -37
304 -151 384 -296 49 -88 56 -85 10 4 -46 87 -173 212 -261 254 -117 56 -245
78 -365 62z"/>
<path d="M8498 15423 c23 -2 59 -2 80 0 20 2 1 4 -43 4 -44 0 -61 -2 -37 -4z"/>
<path d="M8428 15413 c7 -3 16 -2 19 1 4 3 -2 6 -13 5 -11 0 -14 -3 -6 -6z"/>
<path d="M8690 15396 c0 -2 7 -7 16 -10 8 -3 12 -2 9 4 -6 10 -25 14 -25 6z"/>
<path d="M12757 14449 c-187 -20 -360 -96 -515 -227 -29 -25 -62 -58 -72 -73
l-20 -27 35 -54 c80 -120 105 -233 105 -470 l0 -178 120 0 120 0 0 -376 0
-375 33 -14 c123 -51 386 -59 537 -15 314 89 550 325 646 645 24 80 27 107 28
240 1 169 -17 258 -78 391 -167 361 -545 576 -939 533z"/>
<path d="M8724 13978 l-29 -33 33 29 c30 28 37 36 29 36 -2 0 -16 -15 -33 -32z"/>
<path d="M12011 13906 c-50 -113 -81 -262 -81 -384 0 -102 1 -102 91 -102 l79
0 0 168 c0 175 -13 259 -49 329 l-18 37 -22 -48z"/>
<path d="M8679 13923 c-13 -16 -12 -17 4 -4 16 13 21 21 13 21 -2 0 -10 -8
-17 -17z"/>
<path d="M8619 13873 c-13 -16 -12 -17 4 -4 16 13 21 21 13 21 -2 0 -10 -8
-17 -17z"/>
<path d="M8500 13809 c-52 -27 -124 -55 -160 -63 -36 -8 -56 -14 -45 -15 55
-2 233 67 290 112 30 24 20 20 -85 -34z"/>
<path d="M8108 13723 c9 -4 12 -340 12 -1634 l0 -1629 -23 0 c-26 0 -71 -28
-591 -369 -203 -133 -370 -240 -372 -239 -1 2 8 46 21 98 48 203 75 444 75
691 0 91 7 201 16 265 21 138 24 472 5 563 -33 168 -129 400 -197 479 -68 79
-143 104 -201 66 -18 -11 -28 -13 -31 -6 -19 58 -61 118 -95 135 l-38 19 -50
-26 c-51 -26 -69 -26 -69 -1 0 24 -49 73 -85 85 -29 9 -41 8 -77 -8 -24 -11
-54 -31 -68 -44 l-25 -24 -23 80 c-29 100 -84 205 -164 309 l-60 79 36 37 c35
36 66 104 66 145 0 124 -130 229 -301 243 -72 6 -149 -11 -229 -52 l-45 -23
-56 28 c-31 16 -93 36 -139 46 -121 24 -208 8 -279 -52 -31 -25 -77 -101 -68
-110 2 -3 10 9 17 26 24 59 133 132 173 117 7 -3 4 -6 -6 -6 -28 -1 -89 -36
-120 -69 -15 -16 -36 -51 -46 -77 -17 -45 -23 -50 -69 -66 -27 -9 -62 -25 -76
-35 -56 -36 -86 -140 -86 -300 0 -72 -5 -102 -22 -140 -16 -36 -21 -68 -21
-124 0 -100 17 -156 60 -199 41 -41 50 -3 -69 -315 -91 -239 -90 -230 -27
-364 90 -193 224 -326 310 -307 30 7 78 55 106 108 9 17 38 95 63 172 l47 140
99 6 c105 7 159 24 223 73 140 105 259 431 290 791 8 85 13 112 27 122 10 7
21 13 24 13 8 0 78 -224 92 -295 6 -33 12 -141 12 -239 l1 -179 -55 -11 c-111
-23 -153 -67 -158 -168 -8 -132 73 -309 260 -570 60 -84 71 -107 81 -163 15
-91 4 -100 -65 -53 -29 19 -75 49 -102 66 l-49 32 -114 -110 -114 -111 -49 42
c-28 23 -50 45 -50 49 0 3 48 57 106 119 59 61 105 114 103 116 -3 2 -56 -45
-120 -105 l-116 -109 -178 160 c-97 88 -179 158 -181 156 -2 -2 5 -33 15 -68
42 -134 53 -213 60 -417 l6 -202 33 -32 32 -32 33 32 c39 38 48 39 73 11 47
-52 383 -334 512 -429 113 -83 300 -207 452 -298 11 -7 -3 -19 -58 -53 -144
-88 -112 -81 -347 -75 -308 9 -572 38 -739 81 -101 26 -121 40 -150 103 -25
55 -143 410 -186 560 -19 66 -24 73 -43 69 -12 -3 -174 -34 -360 -69 l-338
-63 6 -120 c29 -551 92 -905 198 -1123 74 -152 166 -207 480 -287 l127 -32
-112 -7 c-126 -7 -897 -22 -1552 -31 -236 -3 -431 -6 -432 -8 -2 -1 -8 -69
-15 -150 -18 -211 8 -457 67 -634 26 -79 100 -230 149 -302 193 -291 647 -497
1458 -661 202 -41 666 -120 827 -141 52 -6 96 -13 98 -14 4 -3 -87 -257 -161
-450 -179 -465 -458 -1152 -714 -1760 l-148 -350 -108 -3 c-137 -3 -143 -22
-7 -22 55 0 100 -1 100 -3 0 -2 -27 -65 -59 -140 -33 -75 -58 -137 -57 -137 1
0 241 -56 532 -125 364 -86 550 -134 595 -155 37 -17 98 -41 135 -54 l68 -23
-54 -25 -55 -26 196 -1 c108 -1 224 -4 258 -7 66 -7 80 4 34 26 l-28 13 35 9
c246 65 326 124 317 231 -6 71 -46 109 -122 115 -65 5 -67 -10 14 167 l58 130
47 3 c58 4 65 29 8 34 l-38 3 100 227 c55 125 103 225 108 222 4 -3 8 -333 8
-735 l0 -729 607 0 c564 0 688 -4 812 -29 l34 -6 -47 -30 c-43 -27 -64 -54
-32 -42 69 27 412 97 474 97 30 0 8 19 -29 25 l-42 7 69 30 c130 57 195 111
238 195 l16 33 3103 2 c3097 3 3102 3 3157 23 101 38 184 92 251 163 114 122
172 248 192 419 l11 93 435 1 c240 1 670 5 956 8 388 5 449 8 243 9 l-278 2 5
28 c3 15 30 252 60 527 31 275 60 542 67 593 l11 92 48 0 49 0 0 130 0 130
-290 0 -290 0 -11 27 c-13 34 -3 56 74 175 100 155 253 320 387 416 l65 47 90
-2 c50 -1 152 -11 228 -22 145 -22 324 -28 297 -11 -8 5 -43 10 -77 10 -33 0
-114 9 -180 21 -65 11 -158 26 -208 32 l-89 12 69 41 c39 23 95 54 125 69 l55
28 86 -17 c47 -9 122 -16 167 -16 81 0 226 17 249 29 6 3 -86 6 -205 6 -137 0
-224 4 -235 11 -15 9 9 22 150 82 92 39 188 78 212 88 84 33 25 25 -78 -11
-57 -20 -105 -34 -108 -32 -5 5 35 56 91 115 22 23 37 42 33 42 -14 0 -100
-85 -137 -135 -32 -43 -48 -54 -121 -84 -46 -19 -128 -56 -181 -82 -54 -27
-100 -49 -103 -49 -16 0 71 103 158 186 54 52 94 94 91 94 -13 0 -109 -77
-170 -136 -33 -32 -81 -87 -106 -121 -34 -46 -71 -79 -138 -125 -171 -115
-351 -306 -465 -491 -27 -42 -49 -76 -51 -74 -6 5 85 425 121 557 60 224 125
435 192 623 72 203 168 437 186 453 7 7 50 24 97 39 165 54 458 164 520 195
69 35 172 101 167 107 -2 2 -60 -22 -129 -52 -69 -30 -217 -85 -329 -123 -112
-38 -228 -79 -256 -90 -29 -12 -53 -18 -53 -14 0 5 71 149 158 322 l157 314
65 22 c135 45 308 138 349 188 22 26 2 19 -71 -25 -69 -42 -308 -153 -315
-146 -2 2 17 41 43 87 29 54 42 86 36 92 -7 7 -22 -7 -45 -38 -42 -58 -197
-317 -258 -432 l-44 -82 -8 37 c-4 21 -11 137 -14 258 -5 176 -8 212 -16 180
-14 -53 -13 -394 0 -469 10 -59 10 -59 -40 -165 -28 -58 -78 -171 -113 -250
-42 -98 -64 -138 -67 -125 -88 297 -110 410 -111 586 -1 96 -4 141 -10 130 -5
-9 -10 -95 -10 -192 0 -203 22 -347 79 -517 l34 -103 -35 -92 c-95 -249 -232
-745 -285 -1030 -13 -71 -26 -128 -29 -128 -3 0 -38 109 -79 243 -143 466
-299 923 -429 1255 l-60 153 19 152 c17 138 70 363 114 486 18 51 18 51 6 51
-22 0 -145 -348 -161 -457 -20 -127 -21 -127 -64 -27 -21 49 -77 170 -124 269
l-85 180 -1 170 c-1 94 3 199 7 235 5 36 6 62 2 58 -14 -13 -35 -196 -35 -298
l0 -105 -30 52 -30 52 -8 1888 c-8 1785 -9 1669 -11 -2142 -1 -2571 -5 -4055
-11 -4098 -40 -276 -242 -497 -495 -542 -95 -17 -956 -19 -4144 -8 l-2042 6
-13 32 c-30 71 -119 97 -200 59 -33 -16 -36 -16 -68 4 -68 42 -65 29 -77 357
-39 1070 -87 1737 -171 2402 l-30 233 0 1389 0 1389 48 54 c70 77 163 194 209
263 69 102 86 144 91 222 4 69 4 71 -19 75 -19 2 -6 14 69 63 93 61 106 74 96
99 -3 8 -118 98 -255 201 l-249 187 0 1634 0 1633 68 4 c58 3 56 3 -23 4 -49
1 -84 -1 -77 -4z m-2681 -709 c30 -9 53 -18 51 -20 -2 -2 -22 1 -44 7 -21 6
-70 15 -109 19 l-70 7 58 2 c33 0 84 -6 114 -15z m699 -138 c38 -81 27 -150
-33 -217 -44 -48 -53 -44 -19 8 14 21 31 59 38 86 16 61 0 126 -45 182 l-32
40 34 -24 c19 -14 44 -46 57 -75z m-835 -547 c-5 -24 -15 -70 -21 -102 -12
-61 -33 -82 -63 -66 -27 16 -21 39 33 124 28 44 50 83 50 89 0 5 2 7 5 4 3 -3
2 -25 -4 -49z m2880 -1945 c51 -37 55 -44 39 -60 -6 -6 25 -36 94 -87 83 -62
109 -77 128 -72 18 5 36 -3 71 -30 50 -38 58 -62 30 -87 -10 -8 -220 -147
-468 -308 -466 -304 -487 -316 -529 -280 -9 7 -13 17 -9 21 5 5 70 35 145 67
165 71 279 140 307 186 49 79 34 136 -41 157 -55 14 -116 7 -300 -36 -80 -19
-204 -43 -275 -54 -235 -35 -258 -35 -230 3 7 9 219 151 472 316 335 219 467
300 488 300 18 0 49 -14 78 -36z m175 -145 c4 -8 1 -8 -14 0 -12 6 -24 16 -28
22 -4 8 -1 8 14 0 12 -6 24 -16 28 -22z m-91 -475 c-89 -75 -105 -85 -105 -71
0 8 28 33 63 55 72 47 84 51 42 16z m-136 -96 c-1 -27 -179 -163 -279 -213
-53 -27 -161 -68 -166 -63 -3 4 429 286 439 287 4 1 7 -5 6 -11z m-595 -245
l40 -28 -33 -3 c-39 -4 -83 21 -75 43 9 21 22 19 68 -12z m594 -2065 l-3 -633
-29 135 c-64 301 -128 466 -218 565 -66 72 -186 169 -289 234 -66 41 -66 41
-79 104 -57 274 -347 484 -925 671 -71 23 -172 53 -222 66 -51 13 -91 25 -89
27 2 2 73 8 157 13 172 11 270 24 344 45 28 8 97 26 155 40 403 97 628 182
822 312 111 74 240 178 313 253 l60 61 3 -631 c1 -346 1 -915 0 -1262z m7350
777 c22 -49 56 -125 76 -169 l37 -78 -48 39 c-26 22 -63 49 -80 62 l-33 22 0
111 c0 61 2 109 4 107 2 -2 22 -44 44 -94z m8 -208 c125 -99 137 -115 197
-257 31 -74 77 -189 103 -255 25 -66 49 -124 52 -130 3 -5 -10 3 -29 18 -112
91 -212 161 -290 202 l-89 46 0 205 c0 112 3 204 8 204 4 0 25 -15 48 -33z
m94 -515 c115 -79 296 -227 305 -250 83 -207 432 -1239 422 -1248 -2 -3 -21
24 -41 58 -102 175 -268 376 -394 480 -80 66 -93 81 -127 153 -28 61 -55 97
-109 151 -68 67 -180 143 -193 130 -8 -7 -12 -3 66 -56 86 -57 132 -106 175
-182 20 -36 36 -68 36 -72 0 -3 -37 13 -82 37 -46 24 -111 55 -145 71 l-63 27
0 55 c0 35 4 54 12 54 9 0 9 3 0 12 -9 9 -12 100 -12 346 l0 334 28 -17 c15
-10 70 -47 122 -83z m-20 -809 c91 -49 183 -111 253 -171 l42 -37 -185 -1
c-102 0 -197 -3 -212 -7 l-28 -7 0 140 0 141 23 -6 c12 -4 60 -27 107 -52z
m343 -258 c18 -7 138 -151 209 -250 111 -155 238 -397 238 -454 l0 -31 -310 0
-310 0 0 -130 0 -130 45 0 c38 0 45 -3 49 -22 12 -61 113 -1207 107 -1214 -2
-2 -116 -4 -253 -4 l-248 0 0 1120 0 1119 63 4 c90 6 389 0 410 -8z m-9535
-2621 c14 -10 22 -25 22 -46 0 -88 -75 -147 -227 -177 -49 -10 -50 -20 20 131
29 61 52 98 63 101 41 10 101 6 122 -9z m2050 -232 l23 -15 -27 -28 c-15 -16
-31 -29 -36 -29 -4 0 -8 23 -8 51 0 53 -1 52 48 21z m220 -18 c26 -18 29 -44
5 -43 -10 0 -40 9 -68 19 -48 17 -49 18 -25 28 36 15 62 14 88 -4z m-69 -55
c30 -10 62 -19 73 -19 48 0 0 -86 -74 -133 -45 -28 -169 -87 -184 -87 -2 0 -4
40 -4 89 l0 88 51 48 c35 33 55 45 67 40 9 -4 41 -16 71 -26z"/>
<path d="M6745 13611 c-198 -51 -263 -301 -113 -437 54 -48 95 -64 170 -64 70
0 130 24 169 67 21 24 20 23 -16 -5 -97 -75 -235 -59 -317 38 -86 99 -76 235
24 325 58 52 111 70 183 61 30 -3 44 -2 35 3 -23 14 -102 21 -135 12z"/>
<path d="M6900 13586 c0 -2 7 -7 16 -10 8 -3 12 -2 9 4 -6 10 -25 14 -25 6z"/>
<path d="M6302 13041 c-95 -60 -97 -195 -3 -252 55 -33 143 -20 181 27 11 12
6 11 -20 -5 -42 -25 -80 -27 -125 -5 -117 55 -77 234 53 236 22 0 46 -3 54 -7
10 -6 10 -5 1 5 -21 23 -104 24 -141 1z"/>
<path d="M11645 12863 c-67 -14 -107 -50 -126 -115 -12 -42 4 -98 38 -139 l27
-32 -32 -156 c-18 -86 -32 -162 -32 -168 0 -10 37 -13 151 -13 l151 0 -5 23
c-4 12 -20 89 -37 170 l-31 148 30 34 c38 44 49 96 30 149 -23 65 -101 112
-164 99z"/>
<path d="M10237 11163 c-4 -3 -7 -55 -7 -113 0 -78 4 -111 13 -119 20 -16 27
-3 27 51 l0 48 50 0 c43 0 50 3 50 20 0 17 -7 20 -51 20 l-50 0 3 33 c3 32 4
32 61 35 42 2 57 7 57 17 0 12 -16 15 -73 15 -41 0 -77 -3 -80 -7z"/>
<path d="M11270 11140 c0 -18 -6 -33 -15 -36 -8 -4 -15 -13 -15 -20 0 -8 7
-17 15 -20 11 -5 15 -22 15 -69 0 -48 4 -64 16 -69 9 -3 20 -4 25 0 12 7 11
34 -1 34 -17 0 -12 97 5 104 8 3 15 12 15 21 0 8 -7 15 -15 15 -10 0 -15 11
-15 35 0 24 -5 35 -15 35 -10 0 -15 -10 -15 -30z"/>
<path d="M11512 11048 c3 -101 6 -123 18 -123 11 0 16 13 18 48 3 46 4 47 36
47 74 0 113 77 66 128 -17 18 -32 22 -81 22 l-60 0 3 -122z m102 79 c11 -8 17
-23 14 -38 -2 -20 -9 -25 -40 -27 l-38 -3 0 40 c0 36 3 41 23 41 13 0 31 -6
41 -13z"/>
<path d="M13080 11130 l0 -41 -34 6 c-38 8 -90 -14 -100 -40 -9 -25 -7 -64 5
-86 15 -29 67 -49 97 -38 16 6 29 6 37 -1 21 -18 25 1 25 122 0 98 -3 118 -15
118 -11 0 -15 -11 -15 -40z m-21 -84 c17 -20 10 -67 -11 -79 -27 -18 -68 7
-68 41 0 15 5 33 12 40 16 16 53 15 67 -2z"/>
<path d="M13189 11151 c-19 -16 -21 -22 -12 -32 10 -10 16 -9 31 4 23 21 46
22 62 2 18 -21 8 -48 -23 -63 -20 -10 -27 -20 -27 -43 0 -19 5 -29 15 -29 8 0
15 5 15 11 0 6 14 24 30 39 37 35 40 77 7 108 -29 27 -67 28 -98 3z"/>
<path d="M10457 11089 c-27 -16 -49 -73 -38 -101 24 -64 97 -82 138 -34 62 73
-19 182 -100 135z m73 -39 c24 -24 25 -47 3 -72 -20 -22 -46 -23 -67 -2 -23
22 -20 60 6 78 29 20 34 20 58 -4z"/>
<path d="M10640 11015 c0 -45 3 -85 7 -88 14 -15 33 18 33 59 0 46 25 84 56
84 9 0 14 6 12 13 -3 7 -25 12 -56 13 l-52 1 0 -82z"/>
<path d="M10815 11076 c-61 -61 1 -176 80 -146 14 5 25 6 25 2 0 -17 -26 -32
-55 -32 -38 0 -49 -9 -34 -27 18 -21 65 -15 96 11 27 23 28 28 28 118 l0 93
-58 3 c-50 2 -60 -1 -82 -22z m99 -49 c8 -21 6 -31 -9 -47 -22 -24 -42 -25
-67 -3 -23 21 -23 48 2 73 25 25 61 14 74 -23z"/>
<path d="M11056 11074 c-33 -34 -35 -83 -3 -119 60 -70 169 4 133 90 -25 60
-85 73 -130 29z m82 -20 c39 -27 19 -94 -27 -94 -42 0 -60 71 -25 97 23 16 25
16 52 -3z"/>
<path d="M11725 11075 c-61 -60 2 -175 80 -145 16 6 26 6 31 -1 4 -6 11 -6 20
2 15 12 20 135 6 155 -4 5 -31 11 -60 12 -44 2 -57 -2 -77 -23z m85 -25 c11
-11 20 -28 20 -37 0 -22 -29 -53 -51 -53 -23 0 -49 27 -49 51 0 20 33 59 50
59 6 0 19 -9 30 -20z"/>
<path d="M11943 11074 c-22 -34 -9 -55 46 -73 23 -7 40 -18 38 -25 -5 -15 -47
-20 -60 -7 -16 16 -37 14 -37 -4 0 -34 86 -48 115 -19 9 9 15 28 13 42 -2 20
-12 30 -43 41 -50 18 -52 20 -36 31 8 5 25 4 39 -1 35 -13 55 7 28 27 -33 24
-83 18 -103 -12z"/>
<path d="M12126 11087 c-12 -9 -17 -23 -14 -42 2 -24 10 -31 46 -43 24 -8 41
-19 39 -25 -4 -13 -38 -14 -74 -2 -28 9 -31 -11 -5 -31 33 -25 95 -16 113 17
15 29 -5 56 -51 70 -39 12 -53 28 -27 30 16 2 18 2 50 -6 21 -6 27 -4 27 9 0
32 -70 48 -104 23z"/>
<path d="M12300 11083 c0 -27 54 -153 65 -153 6 0 16 15 24 33 l12 32 17 -33
c9 -18 20 -31 26 -29 12 4 78 158 71 165 -2 3 -17 -21 -31 -53 l-27 -58 -15
36 c-17 45 -35 47 -52 7 -7 -16 -15 -30 -19 -30 -3 0 -16 23 -28 50 -22 50
-43 66 -43 33z"/>
<path d="M12606 11075 c-35 -33 -36 -92 -2 -124 80 -75 190 46 111 124 -31 32
-74 32 -109 0z m82 -21 c39 -27 19 -94 -28 -94 -20 0 -50 35 -50 57 0 14 35
53 48 53 4 0 18 -7 30 -16z"/>
<path d="M12807 11093 c-4 -3 -7 -42 -7 -85 0 -71 2 -78 20 -78 17 0 20 7 20
45 0 46 24 84 61 97 11 4 11 8 2 18 -10 11 -18 11 -37 2 -16 -7 -28 -8 -31 -2
-7 12 -19 13 -28 3z"/>
<path d="M13225 10950 c-8 -13 4 -32 16 -25 12 8 12 35 0 35 -6 0 -13 -4 -16
-10z"/>
<path d="M4864 10860 c27 -122 108 -443 120 -475 23 -62 19 -13 -10 120 -15
66 -30 158 -34 205 -5 63 -9 79 -15 61 -7 -21 -11 -17 -32 40 -25 68 -38 89
-29 49z"/>
<path d="M4202 10747 c-6 -43 -12 -90 -12 -104 0 -36 -9 -24 -25 34 -13 46
-13 47 -14 13 0 -19 4 -55 10 -80 6 -25 12 -131 13 -237 0 -105 4 -195 8 -199
4 -4 18 -2 30 4 l23 12 -22 -6 c-28 -7 -28 -15 -7 328 17 281 16 359 -4 235z"/>
<path d="M4800 10459 c-102 -17 -424 -81 -504 -100 -78 -18 -116 -34 -60 -24
16 2 119 19 229 36 317 49 542 100 430 98 -22 -1 -65 -5 -95 -10z"/>
<path d="M10465 10460 c-368 -3 219 -5 1305 -6 1352 0 1738 2 1225 7 -839 7
-1538 7 -2530 -1z"/>
<path d="M10288 10193 c18 -2 45 -2 60 0 15 2 0 4 -33 4 -33 0 -45 -2 -27 -4z"/>
<path d="M10805 10189 c361 -8 1566 -8 1935 0 161 4 -259 7 -965 7 -704 0
-1128 -3 -970 -7z"/>
<path d="M13198 10193 c18 -2 45 -2 60 0 15 2 0 4 -33 4 -33 0 -45 -2 -27 -4z"/>
<path d="M9157 9334 c-4 -4 -7 -47 -7 -96 l0 -88 60 0 c33 0 60 4 60 10 0 6
-20 10 -45 10 -43 0 -45 1 -45 30 0 28 2 30 41 30 52 0 48 24 -4 28 -32 3 -37
7 -37 28 0 22 4 24 46 24 32 0 44 4 42 13 -5 13 -99 23 -111 11z"/>
<path d="M9755 9330 c-4 -6 -3 -16 3 -22 6 -6 12 -6 17 2 4 6 3 16 -3 22 -6 6
-12 6 -17 -2z"/>
<path d="M9830 9245 c0 -57 4 -95 10 -95 6 0 10 38 10 95 0 57 -4 95 -10 95
-6 0 -10 -38 -10 -95z"/>
<path d="M9314 9266 c-9 -24 1 -109 13 -113 8 -3 13 12 15 44 3 44 5 48 28 48
22 0 26 -5 30 -48 6 -60 24 -62 28 -2 5 76 62 71 62 -6 0 -21 4 -41 10 -44 15
-9 24 44 14 84 -11 42 -52 63 -84 43 -12 -7 -21 -8 -25 -2 -10 15 -85 12 -91
-4z"/>
<path d="M9588 9263 c-21 -23 -24 -41 -15 -76 9 -34 41 -48 88 -38 l34 7 0 59
0 60 -46 3 c-33 2 -49 -2 -61 -15z m72 -28 c23 -28 -9 -72 -45 -59 -36 14 -24
74 15 74 10 0 23 -7 30 -15z"/>
<path d="M9754 9266 c-9 -23 0 -121 11 -119 14 4 19 133 5 133 -6 0 -13 -6
-16 -14z"/>
<path d="M17293 8484 c-22 -48 -46 -189 -30 -174 3 3 20 50 38 105 17 55 34
106 36 112 3 7 0 13 -6 13 -7 0 -24 -25 -38 -56z"/>
<path d="M15851 8328 c-35 -61 -70 -148 -77 -193 -4 -30 -4 -30 8 -5 47 97
108 243 104 247 -2 3 -18 -19 -35 -49z"/>
<path d="M16706 8191 c-34 -116 -41 -237 -18 -336 5 -26 7 -21 13 30 4 33 7
96 8 140 1 44 6 109 11 144 13 79 6 90 -14 22z"/>
<path d="M17745 7864 c-82 -35 -176 -74 -207 -86 -32 -11 -58 -24 -58 -28 0
-22 235 54 324 105 149 85 127 88 -59 9z"/>
<path d="M17423 6714 c-18 -13 -42 -39 -54 -57 -16 -23 -6 -16 34 23 52 50 62
60 55 60 -2 0 -17 -12 -35 -26z"/>
<path d="M17888 6554 c-3 -3 -46 -14 -94 -24 l-89 -20 65 4 c42 2 80 11 105
24 22 12 35 21 29 22 -6 0 -13 -3 -16 -6z"/>
<path d="M2671 4106 c2 -2 334 -6 737 -10 498 -4 732 -3 732 4 0 7 -240 10
-737 10 -405 0 -734 -2 -732 -4z"/>
<path d="M5880 3364 c-44 -9 -150 -45 -155 -54 -3 -5 64 -6 147 -3 84 2 198 0
253 -5 55 -5 104 -6 108 -2 9 8 -58 35 -124 49 -55 12 -195 21 -229 15z"/>
<path d="M5941 3261 c-42 -11 -111 -42 -111 -50 0 -3 115 -6 255 -7 140 0 252
3 249 7 -3 5 -35 18 -72 30 -74 23 -261 35 -321 20z"/>
<path d="M8315 3050 c-66 -14 -122 -37 -175 -72 -50 -33 -66 -54 -32 -44 65
20 284 68 371 80 105 16 120 20 107 33 -11 11 -224 13 -271 3z"/>
<path d="M8450 2980 c-25 -4 -70 -18 -101 -29 -58 -22 -145 -78 -136 -88 3 -3
59 9 124 25 100 26 250 54 342 64 14 2 26 8 28 14 7 22 -159 31 -257 14z"/>
<path d="M4570 2929 c19 -4 64 -15 100 -23 36 -8 101 -23 145 -34 44 -11 195
-46 335 -76 140 -31 311 -70 380 -85 69 -16 168 -39 220 -50 52 -12 250 -55
440 -97 190 -42 372 -80 405 -85 33 -5 68 -12 78 -15 9 -3 17 -2 17 3 0 5 -26
14 -57 21 -32 7 -110 26 -173 42 -63 16 -153 36 -200 45 -75 15 -214 46 -405
90 -95 22 -407 91 -560 124 -77 17 -212 46 -300 65 -88 20 -196 42 -240 50
-44 8 -98 20 -120 25 -22 6 -53 10 -70 10 -30 -1 -30 -1 5 -10z"/>
<path d="M7120 2329 c49 -14 2111 -25 2134 -12 27 15 -467 23 -1369 22 -518
-1 -788 -4 -765 -10z"/>
</g>
</svg>
