<?xml version="1.0" standalone="no"?>
<!DOCTYPE svg PUBLIC "-//W3C//DTD SVG 20010904//EN"
 "http://www.w3.org/TR/2001/REC-SVG-20010904/DTD/svg10.dtd">
<svg version="1.0" xmlns="http://www.w3.org/2000/svg"
 width="2000.000000pt" height="2000.000000pt" viewBox="0 0 2000.000000 2000.000000"
 preserveAspectRatio="xMidYMid meet">

<g transform="translate(0.000000,2000.000000) scale(0.100000,-0.100000)"
fill="#000000" stroke="none">
<path d="M10278 19603 c-18 -21 -28 -57 -19 -70 9 -13 174 -110 971 -568 113
-65 358 -207 545 -315 187 -108 491 -283 675 -389 184 -106 348 -202 363 -213
15 -10 36 -18 45 -16 24 4 54 66 42 88 -5 9 -82 59 -172 110 -90 51 -289 166
-443 255 -154 89 -417 241 -585 337 -168 97 -348 200 -400 230 -52 30 -216
125 -365 210 -148 86 -349 201 -445 257 -96 55 -180 101 -186 101 -6 0 -18 -8
-26 -17z"/>
<path d="M13596 18014 c-3 -9 -6 -33 -6 -55 0 -43 -5 -46 -36 -24 -12 8 -24
11 -28 8 -13 -13 -5 -79 13 -107 17 -25 18 -32 5 -61 -11 -27 -12 -74 -6 -239
9 -228 12 -239 81 -280 71 -41 248 -30 343 21 40 22 51 34 67 79 11 29 23 76
26 106 13 104 35 144 86 151 19 3 25 12 31 43 17 96 -1 163 -51 184 -17 7 -32
24 -40 45 -7 19 -27 46 -44 59 -55 41 -100 49 -216 42 -101 -6 -109 -5 -156
19 -59 29 -61 30 -69 9z m21 -246 c33 -20 51 -23 138 -22 55 1 129 8 165 16
l65 14 3 -50 c1 -27 7 -66 12 -85 22 -80 6 -165 -38 -204 -32 -29 -89 -31
-156 -8 -69 25 -123 26 -188 7 -69 -22 -72 -15 -64 152 6 128 14 202 22 202 1
0 20 -10 41 -22z m170 -393 c-7 -16 -37 -21 -37 -5 0 10 32 31 39 25 2 -2 1
-11 -2 -20z"/>
<path d="M13583 17665 c-3 -9 -3 -18 -1 -21 9 -9 59 16 53 26 -10 16 -45 12
-52 -5z"/>
<path d="M13840 17667 c0 -7 12 -19 26 -26 23 -10 25 -9 22 11 -3 26 -48 40
-48 15z"/>
<path d="M13610 17600 c-18 -11 -4 -42 17 -38 10 2 19 10 21 19 4 19 -19 31
-38 19z"/>
<path d="M13817 17603 c-4 -3 -7 -15 -7 -25 0 -13 7 -18 25 -18 29 0 36 34 9
44 -19 7 -19 7 -27 -1z"/>
<path d="M14060 17373 c0 -41 2 -45 14 -33 26 28 29 58 6 70 -19 10 -20 8 -20
-37z"/>
<path d="M8363 17211 c-102 -35 -167 -94 -199 -182 -14 -38 -16 -90 -15 -371
l2 -327 -28 -14 c-73 -38 -111 -103 -120 -207 -13 -152 119 -724 189 -823 11
-16 29 -63 40 -105 19 -72 39 -122 60 -150 15 -18 122 44 154 90 26 37 65 58
113 59 15 0 174 86 376 203 315 183 350 206 353 231 3 26 2 27 -30 21 -179
-34 -294 -1 -274 79 5 19 3 23 -9 19 -13 -5 -15 6 -15 67 1 45 6 84 15 99 8
14 14 37 15 52 0 15 4 29 9 32 5 3 47 -12 95 -34 47 -22 106 -45 131 -51 25
-6 63 -24 85 -40 22 -16 74 -39 115 -51 69 -20 79 -21 103 -8 15 8 38 38 52
65 24 48 25 60 28 260 2 117 8 222 14 238 7 18 30 38 69 58 67 36 139 108 139
139 0 12 9 40 20 62 11 23 20 45 20 50 0 18 -46 6 -117 -32 -72 -38 -113 -50
-113 -32 0 4 9 18 20 32 18 23 28 70 14 70 -9 0 -148 -106 -171 -131 -39 -43
-53 -97 -75 -287 -12 -103 -22 -189 -24 -191 -4 -4 -154 80 -339 189 -74 44
-163 88 -205 101 l-75 24 -3 49 c-2 30 5 73 18 115 14 42 24 102 27 166 3 67
11 116 24 147 50 121 -8 248 -127 277 -27 7 -77 23 -111 37 -75 30 -173 32
-250 5z"/>
<path d="M14060 17186 c0 -33 -55 -77 -155 -125 -67 -32 -110 -59 -121 -77
l-18 -27 -17 39 c-24 54 -23 77 6 133 13 27 21 51 18 55 -3 3 -20 -3 -37 -13
-19 -11 -61 -22 -106 -26 -139 -12 -220 -45 -286 -116 -17 -19 -93 -112 -168
-207 -103 -130 -141 -172 -154 -168 -16 5 -17 -5 -17 -99 0 -117 -7 -107 88
-120 34 -5 47 -4 47 5 0 8 10 10 34 6 28 -5 34 -3 39 14 4 16 13 20 45 20 38
0 46 5 104 70 35 38 65 70 68 70 3 0 4 -49 2 -109 -3 -103 -2 -110 17 -116 12
-3 21 -10 21 -14 0 -5 35 -14 77 -21 42 -6 82 -14 89 -17 7 -3 32 -62 55 -133
l43 -128 60 -6 c34 -3 80 -9 103 -12 38 -5 53 0 140 46 54 29 128 71 165 94
l68 41 0 55 c1 30 5 73 9 95 l7 40 12 -50 c15 -61 17 -95 7 -117 -6 -16 -1
-18 45 -18 103 0 206 -74 197 -142 -7 -56 49 -33 75 30 15 38 11 159 -7 191
-8 14 -21 76 -30 136 -25 170 -71 369 -101 435 -15 33 -43 75 -62 92 -40 35
-107 67 -138 68 -42 0 -115 42 -160 90 -48 52 -64 60 -64 36z"/>
<path d="M12990 16421 c0 -5 -12 -23 -26 -41 -21 -24 -29 -28 -40 -19 -29 24
-14 -13 17 -42 28 -26 97 -55 107 -44 5 4 -48 155 -54 155 -2 0 -4 -4 -4 -9z"/>
<path d="M13226 16405 c5 -11 -1 -15 -20 -15 -18 0 -26 -5 -26 -18 0 -16 17
-21 118 -36 64 -9 127 -20 140 -23 37 -9 16 24 -24 37 -33 11 -47 30 -22 30
46 0 -104 37 -159 39 -7 1 -10 -6 -7 -14z"/>
<path d="M14243 15949 c-23 -10 -120 -43 -215 -75 -95 -31 -180 -60 -189 -65
-14 -7 -11 -22 24 -124 22 -64 38 -117 36 -119 -3 -4 -387 70 -466 89 -19 4
-22 0 -28 -37 -3 -24 -12 -207 -20 -409 -12 -288 -13 -429 -5 -670 5 -167 10
-444 10 -614 0 -171 4 -325 9 -343 6 -20 6 -32 0 -32 -5 0 -8 -3 -7 -7 5 -13
-53 -83 -68 -83 -8 0 -13 -4 -12 -9 2 -5 -39 -41 -89 -80 -114 -88 -125 -103
-111 -143 12 -34 64 -62 135 -74 57 -9 168 12 230 43 49 24 66 42 117 126 9
15 23 26 30 25 16 -4 85 43 91 62 3 8 7 80 9 160 3 80 10 219 16 310 24 377
29 495 30 692 0 198 3 231 50 608 6 47 13 104 16 127 3 24 9 45 15 48 5 4 9 2
9 -2 0 -9 23 -190 39 -313 6 -41 15 -109 20 -150 9 -64 46 -325 81 -565 12
-84 31 -224 60 -435 11 -85 24 -180 29 -210 5 -30 15 -102 22 -159 10 -78 18
-110 32 -124 19 -19 19 -22 3 -122 -29 -185 -19 -303 29 -351 30 -30 103 -33
155 -6 57 28 80 86 80 200 0 52 -8 132 -17 178 l-17 83 22 21 22 21 0 452 c0
339 -4 487 -15 592 -29 264 -34 321 -44 550 -17 374 -42 738 -58 855 -3 25 -5
55 -4 67 3 30 -8 33 -56 12z"/>
<path d="M6297 15854 c-50 -15 -137 -90 -137 -117 0 -7 -21 -28 -46 -45 -63
-45 -89 -104 -88 -202 0 -93 21 -142 93 -225 29 -33 63 -77 75 -97 11 -21 24
-38 28 -38 3 0 8 24 10 54 l3 53 -36 -4 c-31 -5 -39 -1 -67 31 -82 94 15 208
99 118 17 -18 34 -32 39 -32 20 0 30 40 24 98 -8 73 0 122 26 155 l20 25 57
-24 c32 -13 71 -24 86 -24 44 0 95 26 116 61 l19 32 20 -39 c22 -45 38 -106
47 -186 l7 -58 29 21 c53 38 76 111 44 143 -14 14 -13 18 15 43 35 32 47 83
31 125 -8 21 -19 28 -48 33 -72 11 -115 26 -166 59 -29 18 -67 38 -86 44 -46
16 -156 14 -214 -4z"/>
<path d="M9065 15831 c-19 -8 -18 -10 9 -20 55 -22 121 -32 164 -26 23 3 42 9
42 13 0 25 -174 51 -215 33z"/>
<path d="M11507 15794 c-4 -4 -7 -25 -7 -46 0 -43 1 -42 -36 -28 -21 8 -32 7
-52 -6 -21 -14 -24 -21 -19 -60 2 -25 13 -54 23 -66 21 -23 110 -68 136 -68
12 0 19 -11 23 -37 3 -21 12 -55 20 -76 10 -29 11 -38 2 -34 -7 2 -46 10 -87
17 -106 17 -105 17 -89 37 8 9 27 22 44 29 25 11 26 13 9 14 -12 0 -33 -9 -48
-21 -33 -26 -36 -79 -6 -109 16 -16 18 -25 10 -40 -15 -28 -12 -40 9 -40 22 0
31 19 31 62 0 25 -2 28 -14 19 -12 -10 -18 -7 -32 14 -9 14 -14 29 -10 32 7 8
182 -25 210 -40 15 -7 25 -3 48 22 32 34 71 41 104 17 14 -11 19 -26 19 -61 0
-40 -5 -51 -33 -76 -18 -16 -41 -29 -52 -29 -28 0 -27 -62 3 -120 19 -38 29
-47 67 -57 139 -40 310 94 373 292 30 93 27 178 -8 229 -14 20 -25 39 -25 41
0 2 12 11 27 18 l27 14 -23 12 c-18 10 -27 9 -46 -3 -22 -14 -23 -14 -29 9
-10 40 -63 84 -124 101 -50 15 -69 15 -170 4 -111 -13 -115 -13 -165 10 -60
26 -99 35 -110 24z"/>
<path d="M9835 15613 c-184 -107 -259 -146 -285 -147 -26 -1 -132 -57 -422
-225 -214 -124 -388 -230 -388 -236 0 -6 6 -18 13 -27 17 -23 426 -258 447
-258 26 0 780 437 811 469 23 24 29 53 68 284 34 205 40 261 31 272 -7 8 -15
15 -19 14 -3 0 -118 -66 -256 -146z m-69 -318 c16 -40 -54 -125 -102 -125 -18
0 -24 5 -24 21 0 33 37 85 73 103 40 20 46 20 53 1z"/>
<path d="M6580 15560 c0 -9 31 -30 44 -30 13 0 5 28 -10 34 -23 9 -34 7 -34
-4z"/>
<path d="M6367 15523 c-4 -3 -7 -15 -7 -26 0 -19 1 -20 20 -2 11 10 20 22 20
27 0 10 -24 11 -33 1z"/>
<path d="M6587 15474 c-15 -15 -7 -45 11 -42 9 2 17 12 17 22 0 20 -16 31 -28
20z"/>
<path d="M6404 15435 c-7 -18 3 -35 21 -35 18 0 26 15 19 34 -8 20 -33 21 -40
1z"/>
<path d="M6492 15263 c2 -10 10 -18 18 -18 8 0 16 8 18 18 2 12 -3 17 -18 17
-15 0 -20 -5 -18 -17z"/>
<path d="M10385 15014 c-203 -118 -382 -223 -397 -234 -27 -20 -28 -23 -28
-120 0 -55 3 -100 6 -100 3 0 14 5 25 10 16 9 19 22 19 84 0 56 4 77 16 87 32
26 749 436 757 432 9 -5 9 -535 -1 -549 -4 -5 -64 -43 -134 -83 -71 -41 -128
-74 -128 -75 0 -1 24 -2 54 -3 66 -2 115 -26 155 -77 47 -59 56 -103 56 -273
0 -84 1 -153 3 -153 7 0 478 274 491 285 30 29 0 53 -226 184 -124 72 -231
131 -237 131 -8 0 -10 98 -8 335 l3 335 -28 -1 c-18 0 -166 -80 -398 -215z"/>
<path d="M6057 15142 c-35 -38 -26 -63 35 -99 48 -29 61 -33 90 -25 27 7 34
13 36 39 3 29 -1 34 -61 67 -74 41 -78 42 -100 18z"/>
<path d="M8494 15144 c-18 -14 -18 -15 5 -3 14 6 52 9 92 7 37 -2 63 0 56 4
-23 14 -132 9 -153 -8z"/>
<path d="M8610 15130 c0 -5 5 -10 10 -10 6 0 10 5 10 10 0 6 -4 10 -10 10 -5
0 -10 -4 -10 -10z"/>
<path d="M6561 15034 c0 -11 3 -14 6 -6 3 7 2 16 -1 19 -3 4 -6 -2 -5 -13z"/>
<path d="M11630 15040 c-8 -5 -26 -10 -40 -10 -21 -1 -22 -2 -8 -10 21 -13 78
-1 78 16 0 16 -9 17 -30 4z"/>
<path d="M10995 14930 c-3 -5 -19 -10 -35 -10 -30 0 -43 -18 -30 -40 5 -7 6
-28 3 -46 -7 -42 14 -53 52 -28 14 9 28 14 32 11 3 -4 -2 -9 -11 -13 -15 -6
-23 -34 -9 -34 13 0 223 125 223 134 0 9 -31 4 -64 -9 -13 -6 -17 -5 -12 3 4
7 -4 14 -21 17 -15 3 -42 10 -59 15 -39 13 -61 13 -69 0z m42 -16 c-3 -3 -12
-4 -19 -1 -8 3 -5 6 6 6 11 1 17 -2 13 -5z m-37 -34 c0 -13 -20 -13 -40 0 -12
8 -9 10 13 10 15 0 27 -4 27 -10z"/>
<path d="M8495 14890 c-9 -14 13 -50 32 -50 14 0 14 3 -1 28 -16 26 -16 26 8
-3 23 -27 26 -28 26 -9 0 35 -48 61 -65 34z"/>
<path d="M5436 14784 c-9 -8 -16 -27 -16 -42 1 -24 14 -35 120 -94 116 -66
150 -79 150 -58 0 6 -5 10 -11 10 -6 0 -9 10 -7 23 2 16 9 22 26 21 26 -1 30
24 5 33 -10 4 -63 33 -118 65 -107 62 -125 67 -149 42z"/>
<path d="M8037 14583 c-16 -8 -35 -12 -42 -9 -8 3 -12 0 -10 -7 7 -18 -422
-262 -460 -262 -43 0 -808 -442 -801 -462 4 -8 1 -11 -5 -7 -7 4 -10 -1 -7
-12 2 -13 79 -63 223 -146 121 -71 225 -128 232 -128 12 0 774 439 811 468 20
15 28 46 63 252 55 316 54 345 -4 313z m-301 -457 c8 -20 -20 -69 -56 -100
-54 -45 -90 -29 -65 30 25 59 107 107 121 70z"/>
<path d="M6850 14528 c0 -14 29 -150 33 -154 2 -2 40 -22 84 -43 l79 -38 74
43 c74 43 74 44 34 38 -54 -8 -104 14 -212 95 -74 55 -92 66 -92 59z"/>
<path d="M8524 14474 c-18 -14 -18 -15 4 -4 12 6 22 13 22 15 0 8 -5 6 -26
-11z"/>
<path d="M8454 14434 c-18 -14 -18 -15 4 -4 12 6 22 13 22 15 0 8 -5 6 -26
-11z"/>
<path d="M8220 14436 c0 -3 9 -10 20 -16 11 -6 20 -8 20 -6 0 3 -9 10 -20 16
-11 6 -20 8 -20 6z"/>
<path d="M8384 14394 c-18 -14 -18 -15 4 -4 12 6 22 13 22 15 0 8 -5 6 -26
-11z"/>
<path d="M10480 14370 c0 -12 9 -37 20 -55 13 -20 25 -67 32 -119 l11 -86 -57
-75 c-76 -101 -100 -148 -91 -183 11 -46 20 -50 90 -44 l65 5 0 -27 c0 -39 24
-89 56 -120 33 -30 56 -35 30 -7 -37 40 -45 90 -46 266 0 186 -13 323 -35 364
-7 14 -27 43 -44 65 -27 34 -31 36 -31 16z"/>
<path d="M5682 14267 c-22 -26 -52 -103 -52 -133 0 -40 25 -112 48 -137 31
-35 233 -180 252 -182 3 0 49 -28 103 -62 l97 -63 0 -106 0 -107 -76 72 c-148
141 -264 195 -419 196 -84 0 -94 -3 -155 -35 -147 -79 -210 -195 -210 -384 0
-295 165 -639 398 -830 139 -113 290 -173 411 -163 l64 5 -5 -144 c-5 -138 -4
-144 16 -157 18 -12 24 -12 44 1 21 14 22 20 22 175 l0 160 63 58 c46 41 71
75 91 118 l27 60 87 -51 c140 -82 180 -103 187 -96 3 3 -5 117 -19 254 -14
136 -24 249 -23 250 4 4 328 -183 342 -197 5 -5 25 -55 45 -112 30 -82 41
-103 58 -105 18 -3 69 8 160 34 l22 6 0 -198 0 -199 -71 71 c-47 47 -74 82
-79 105 -6 25 -8 10 -9 -61 -1 -113 3 -120 92 -179 l64 -41 2 -342 c1 -226 6
-347 13 -355 13 -16 40 -17 56 -1 9 9 12 91 12 309 l0 298 46 -21 c98 -43 253
-16 283 49 15 32 5 44 -89 103 -62 40 -64 40 -31 9 32 -30 32 -33 15 -46 -30
-22 -114 -16 -172 13 l-52 26 0 214 c0 119 3 213 8 211 106 -59 165 -97 197
-127 22 -20 58 -47 80 -60 22 -13 65 -47 96 -76 65 -61 106 -80 191 -90 54 -6
84 -20 262 -123 l201 -116 2 -689 c2 -643 3 -689 20 -701 14 -10 21 -10 40 2
l23 15 2 870 3 871 405 233 c223 128 405 238 405 244 0 6 -23 24 -50 40 l-50
29 -380 -219 -379 -219 -31 18 c-16 10 -349 203 -740 428 -390 226 -891 515
-1113 643 l-403 233 86 51 86 51 -81 13 c-45 7 -94 19 -108 26 -25 13 -107 78
-217 173 -22 18 -70 57 -107 86 -51 40 -69 60 -74 85 -7 34 -15 40 -32 19z
m21 -716 c143 -50 281 -176 391 -358 l37 -62 5 -223 c3 -123 2 -263 -3 -312
l-8 -89 -40 -21 c-30 -16 -58 -21 -110 -21 -60 0 -81 6 -145 37 -145 71 -286
222 -375 405 -63 127 -87 224 -89 353 -1 95 2 111 27 165 36 76 51 93 112 121
61 29 123 31 198 5z m547 4 c9 -8 64 -41 121 -73 66 -37 108 -67 116 -83 14
-28 40 -245 31 -254 -3 -4 -59 25 -125 63 -161 93 -172 110 -173 255 0 59 3
107 7 107 3 0 14 -7 23 -15z m561 -321 c30 -19 37 -30 42 -68 4 -25 10 -58 13
-72 6 -25 5 -25 -16 -14 -20 11 -30 9 -67 -11 -24 -13 -43 -27 -43 -31 0 -7
96 -65 142 -85 25 -11 58 -53 41 -53 -5 0 -55 28 -113 62 -58 33 -123 72 -146
84 l-41 24 -11 122 c-18 188 -26 176 76 116 48 -28 103 -61 123 -74z m-370
-151 c62 -37 101 -65 104 -78 8 -32 55 -393 55 -420 0 -14 -3 -25 -6 -25 -4 0
-46 23 -95 51 l-89 51 0 83 c0 98 -22 233 -54 327 -12 37 -21 68 -19 68 3 0
49 -26 104 -57z m818 -240 l-2 -138 -15 122 c-14 120 -13 153 8 153 6 0 10
-49 9 -137z m201 5 c22 -35 23 -69 3 -75 -7 -3 -18 17 -27 48 -19 62 -19 59
-6 59 6 0 19 -15 30 -32z m-51 -162 c20 -21 55 -47 79 -58 36 -16 42 -23 42
-48 0 -17 -2 -30 -5 -30 -3 0 -46 23 -95 51 l-90 51 0 67 1 66 16 -30 c8 -16
32 -47 52 -69z m480 -74 c130 -76 293 -171 364 -211 l127 -73 0 -134 c0 -74
-2 -134 -5 -134 -3 0 -73 39 -155 86 l-149 86 21 28 c29 39 20 59 -42 97 -90
54 -97 57 -67 28 26 -24 27 -29 14 -42 -34 -34 -85 -20 -217 57 -193 113 -234
153 -249 246 -5 32 -12 67 -16 76 -6 14 1 17 47 21 29 2 61 4 72 5 10 1 124
-60 255 -136z"/>
<path d="M5755 13060 c-11 -18 6 -69 28 -85 34 -24 47 -19 47 18 0 48 -56 98
-75 67z"/>
<path d="M8290 14059 c-212 -121 -391 -225 -397 -231 -10 -8 -13 -88 -13 -339
0 -328 1 -334 31 -331 3 1 4 -9 2 -21 -2 -12 0 -27 4 -33 7 -10 358 -215 440
-257 l30 -16 207 118 c114 65 208 123 209 127 1 5 -29 12 -68 16 -45 4 -73 12
-81 22 -6 9 -18 16 -27 16 -26 0 -47 11 -47 26 0 8 5 14 10 14 6 0 8 10 5 23
-6 21 -1 26 40 41 60 23 150 31 199 18 36 -10 37 -10 22 7 -18 19 -21 47 -7
56 15 9 127 -62 148 -94 l18 -30 90 53 c94 55 111 79 78 108 -29 25 -425 251
-447 255 -21 4 -21 7 -18 339 l3 334 -23 0 c-13 0 -197 -99 -408 -221z m408
-110 l-3 -281 -379 -219 c-208 -120 -382 -216 -387 -213 -12 7 -11 525 1 544
8 13 745 447 763 449 4 1 6 -126 5 -280z"/>
<path d="M6902 14238 c5 -15 28 -23 28 -10 0 5 -7 13 -16 16 -10 4 -14 1 -12
-6z"/>
<path d="M9540 14055 c-19 -13 -83 -54 -142 -92 l-108 -69 213 -122 c117 -67
222 -128 232 -137 20 -15 20 -15 1 -30 -14 -11 -16 -15 -5 -15 8 0 27 19 43
41 48 68 90 89 202 100 104 11 118 15 94 29 -8 5 -76 44 -150 87 -124 72 -135
81 -135 108 0 25 -10 34 -80 76 -44 27 -91 48 -105 48 -14 0 -41 -11 -60 -24z"/>
<path d="M11020 13944 l-236 -136 6 -53 c3 -30 9 -58 13 -62 7 -7 113 45 147
72 8 6 73 45 144 85 117 67 130 78 147 116 22 52 34 114 23 114 -5 0 -115 -61
-244 -136z"/>
<path d="M11559 13883 c-19 -60 -39 -116 -43 -125 -6 -13 0 -20 30 -33 21 -8
48 -18 61 -21 l23 -6 0 123 c0 206 -18 221 -71 62z"/>
<path d="M9663 13510 c-29 -17 -53 -32 -53 -35 0 -6 61 -37 65 -33 4 5 44 98
42 98 -1 0 -26 -14 -54 -30z"/>
<path d="M11107 13453 c10 -30 51 -80 83 -103 l30 -21 0 29 c0 24 -10 37 -55
71 -61 46 -67 49 -58 24z"/>
<path d="M11196 13233 c-26 -83 -55 -206 -50 -215 3 -5 23 -17 45 -28 38 -20
39 -21 33 -63 -12 -75 -14 -77 -52 -61 -19 7 -36 23 -39 34 -10 39 -20 19 -27
-52 -3 -40 -9 -100 -12 -134 -6 -66 -9 -63 69 -88 12 -4 16 -12 12 -28 -2 -13
-14 -86 -25 -162 -16 -109 -18 -141 -8 -147 31 -19 44 10 73 160 16 83 31 155
34 159 4 4 18 15 32 24 30 19 49 79 49 152 0 52 -8 78 -22 70 -7 -4 -8 9 -3
37 8 50 21 79 36 79 5 0 18 20 29 45 l20 46 -75 70 c-55 53 -76 80 -81 105 -9
51 -21 50 -38 -3z"/>
<path d="M12703 13123 c-24 -14 -43 -29 -43 -34 0 -10 148 -904 155 -935 5
-25 26 -36 44 -24 10 6 5 71 -23 301 -20 162 -47 388 -60 503 -14 114 -26 210
-28 211 -2 2 -22 -8 -45 -22z"/>
<path d="M9466 13046 c-37 -22 -38 -23 -15 -29 13 -4 27 -7 32 -7 8 0 30 50
24 56 -1 2 -20 -7 -41 -20z"/>
<path d="M11746 12818 c-3 -18 -10 -60 -16 -92 -15 -88 -14 -96 14 -96 15 0
27 7 30 18 10 37 37 184 34 187 -2 2 -15 6 -30 10 -24 6 -27 4 -32 -27z"/>
<path d="M9752 12796 c-19 -41 -82 -104 -110 -111 -39 -8 -133 19 -241 70 -51
25 -97 45 -101 45 -10 0 -27 -46 -35 -93 -3 -21 -10 -35 -14 -32 -16 9 -115
-15 -146 -36 -45 -32 -84 -87 -100 -143 -16 -59 -30 -232 -45 -571 -6 -132
-12 -258 -13 -280 -2 -37 0 -40 33 -52 19 -6 70 -12 114 -12 76 -1 78 -2 72
-24 -3 -12 -10 -46 -16 -75 -20 -92 -63 -106 -350 -118 -159 -6 -166 -6 -190
15 l-25 21 30 27 30 26 -59 -7 c-32 -3 -67 -11 -77 -16 -48 -26 -26 -102 43
-148 40 -26 47 -27 242 -36 111 -5 225 -8 255 -8 96 1 128 47 118 170 -5 61
-4 62 20 62 21 0 24 -3 19 -27 -19 -99 -47 -307 -42 -319 7 -17 32 -18 42 -2
4 7 22 83 39 170 18 87 35 162 39 165 3 4 46 -1 94 -10 116 -23 195 -7 223 44
12 24 5 116 -13 162 l-10 27 -17 -32 c-22 -45 -60 -60 -167 -66 l-92 -5 27
129 c22 111 27 123 31 89 5 -36 8 -40 45 -48 48 -10 175 9 175 26 0 7 -28 30
-62 52 -99 63 -206 152 -232 193 -29 44 -52 186 -36 227 5 14 12 25 14 25 3 0
45 -26 93 -59 140 -93 339 -205 448 -252 82 -35 114 -44 176 -47 l75 -4 37
119 c41 132 78 292 71 305 -3 4 -20 8 -38 8 -71 0 -198 53 -242 101 -17 18
-20 42 -24 186 l-5 166 -45 13 c-25 8 -45 14 -46 14 0 0 -6 -11 -12 -24z
m-475 -868 c-3 -8 -6 -5 -6 6 -1 11 2 17 5 13 3 -3 4 -12 1 -19z m-26 -183
c-12 -74 -21 -139 -21 -145 0 -5 -12 -10 -26 -10 -16 0 -24 5 -21 13 3 6 22
76 43 154 22 79 40 138 42 133 2 -5 -6 -70 -17 -145z"/>
<path d="M11977 12813 c-25 -4 -28 -8 -23 -31 11 -57 28 -170 81 -562 68 -494
61 -462 88 -458 27 4 29 -42 -24 565 l-44 493 -25 -2 c-14 0 -38 -3 -53 -5z"/>
<path d="M6527 12453 c-4 -3 -7 -55 -7 -114 0 -63 -4 -110 -10 -114 -17 -11
-42 65 -48 147 l-5 77 -28 -14 c-56 -29 -73 -90 -49 -175 25 -90 125 -190 189
-190 37 0 120 55 132 88 31 81 -42 240 -133 288 -31 16 -32 16 -41 7z"/>
<path d="M10732 11954 c-23 -14 -42 -33 -42 -42 0 -31 151 -927 159 -941 9
-19 23 -23 38 -13 9 6 2 95 -32 377 -68 568 -77 640 -79 642 -1 1 -21 -9 -44
-23z"/>
<path d="M9776 11658 c-10 -49 -26 -156 -26 -176 0 -17 6 -22 25 -22 27 0 25
-4 50 119 16 78 14 84 -22 95 -18 6 -23 3 -27 -16z"/>
<path d="M10006 11643 c-27 -4 -28 -6 -21 -46 4 -23 37 -258 74 -522 l66 -480
28 -3 c28 -3 28 -3 22 45 -13 107 -85 928 -85 969 0 48 -2 49 -84 37z"/>
<path d="M11935 11555 c-38 -13 -88 -27 -109 -30 -53 -9 -100 -56 -93 -93 7
-36 -6 -57 -52 -83 -38 -21 -61 -54 -61 -87 0 -10 14 -46 31 -81 28 -56 30
-70 23 -110 -16 -92 -11 -147 16 -176 26 -28 77 -55 105 -55 12 0 14 8 8 42
-6 42 -6 42 12 24 24 -23 77 -46 108 -46 13 0 40 11 60 24 l36 24 15 -21 c14
-21 15 -21 15 20 l1 41 -37 -4 c-69 -9 -133 55 -133 132 0 31 54 90 92 99 37
9 94 -19 118 -57 18 -30 20 -31 20 -10 0 14 15 37 35 56 23 22 35 43 35 60 0
53 116 87 178 52 21 -11 27 -9 57 21 29 29 36 32 60 23 24 -9 26 -8 19 12 -28
91 -118 153 -235 165 -63 6 -69 8 -39 14 l35 6 -43 2 c-30 1 -54 10 -84 31
-51 37 -94 38 -193 5z"/>
<path d="M2620 11491 c-52 -17 -110 -52 -144 -87 -56 -58 -75 -108 -87 -230
-11 -118 -7 -175 19 -239 19 -47 124 -226 130 -221 2 2 -17 44 -42 93 -55 107
-66 175 -43 273 45 191 128 267 342 311 50 10 110 19 134 19 l44 0 -23 25
c-25 26 -106 56 -150 55 -14 -1 -54 1 -90 4 -36 3 -76 2 -90 -3z"/>
<path d="M12447 11193 c-14 -13 -6 -22 24 -28 36 -8 47 -1 29 20 -13 15 -42
20 -53 8z"/>
<path d="M12237 11168 c-17 -9 -24 -48 -9 -48 8 1 52 36 52 43 0 11 -27 14
-43 5z"/>
<path d="M2970 11105 c-41 -30 -50 -31 -100 -5 -22 11 -59 20 -84 20 -39 0
-48 -4 -69 -32 -14 -18 -32 -56 -41 -85 -16 -47 -21 -53 -52 -59 -19 -3 -37
-10 -40 -15 -3 -5 -9 -7 -14 -4 -11 7 -40 -88 -40 -132 0 -26 5 -34 25 -39 24
-6 25 -9 24 -78 -1 -66 -2 -68 -11 -34 -10 37 -10 38 -38 23 -48 -25 -60 -20
-60 24 0 22 5 43 10 46 6 3 10 14 10 23 -1 13 -5 12 -21 -8 -17 -20 -20 -34
-16 -71 l6 -46 -292 -131 c-161 -72 -301 -134 -312 -138 -11 -4 -52 -27 -91
-51 -96 -58 -113 -99 -59 -148 18 -16 43 -96 120 -390 298 -1135 285 -1097
375 -1161 25 -17 200 -109 390 -205 413 -206 402 -204 530 -136 47 24 166 86
265 137 99 50 341 185 538 298 l358 206 -7 41 c-14 85 -53 126 -208 220 -90
54 -111 63 -120 51 -6 -8 -114 -66 -239 -128 -187 -94 -230 -112 -234 -99 -4
9 -13 24 -21 34 -14 15 -14 26 -2 85 7 37 15 73 18 81 4 10 1 13 -9 9 -9 -3
-25 1 -36 11 -16 12 -20 23 -16 45 5 26 8 28 43 22 l37 -6 22 103 c13 56 28
124 33 152 5 27 16 61 23 75 7 14 16 33 19 43 3 11 15 17 33 17 18 0 33 8 41
21 9 13 19 18 32 14 41 -13 26 13 -20 35 -48 23 -50 23 -70 5 -33 -30 -90
-153 -90 -196 l0 -38 -42 13 c-24 7 -54 16 -68 21 -22 7 -23 6 -11 -9 17 -20
7 -48 -39 -100 -26 -29 -35 -34 -50 -26 -34 18 -41 10 -13 -15 33 -28 31 -29
-87 -15 -81 9 -86 9 -122 -15 -32 -22 -156 -50 -203 -47 -5 0 -71 8 -145 16
-74 9 -145 16 -158 16 -37 0 -64 -74 -70 -193 -5 -113 2 -109 -118 -52 -94 46
-146 102 -173 188 -44 143 -51 294 -26 572 9 94 14 206 13 250 -2 68 1 87 22
128 30 60 83 109 141 130 24 9 83 30 132 48 l87 32 19 -25 c32 -40 166 -127
300 -195 69 -35 129 -63 133 -63 11 0 -21 100 -48 150 -14 25 -47 71 -74 103
-28 32 -50 65 -50 73 0 21 44 35 135 41 66 4 90 2 133 -15 l53 -20 -7 61 c-9
89 -22 137 -50 179 -26 41 -31 87 -12 106 9 9 9 12 0 12 -8 0 -12 20 -12 60 0
47 3 60 15 60 9 0 18 -7 21 -15 8 -20 34 0 34 26 0 14 -9 19 -42 21 -36 3 -43
7 -51 33 -13 40 -45 85 -61 85 -7 0 -27 -11 -46 -25z m-345 -205 c-3 -5 -11
-10 -16 -10 -6 0 -7 5 -4 10 3 6 11 10 16 10 6 0 7 -4 4 -10z m303 -1685 c-3
-3 -9 2 -12 12 -6 14 -5 15 5 6 7 -7 10 -15 7 -18z"/>
<path d="M12440 11099 c0 -25 33 -22 38 4 2 12 -3 17 -17 17 -15 0 -21 -6 -21
-21z"/>
<path d="M11958 11099 c-37 -21 -13 -99 31 -99 20 0 51 30 51 49 0 13 -45 61
-57 61 -4 0 -16 -5 -25 -11z"/>
<path d="M12270 11080 c0 -13 7 -20 20 -20 13 0 20 7 20 20 0 13 -7 20 -20 20
-13 0 -20 -7 -20 -20z"/>
<path d="M12530 11021 c0 -5 16 -18 35 -30 19 -11 35 -27 35 -36 0 -8 5 -15
10 -15 12 0 13 30 2 46 -21 30 -82 56 -82 35z"/>
<path d="M12285 10939 c11 -7 25 -19 31 -27 6 -8 16 -12 22 -8 19 11 14 23
-12 30 -13 3 -32 9 -43 12 -15 5 -15 4 2 -7z"/>
<path d="M12300 10719 c0 -20 12 -63 26 -95 27 -61 74 -231 74 -268 0 -15 -9
-7 -35 31 -48 71 -131 159 -230 243 -61 52 -85 78 -87 98 -3 27 -3 27 -31 -14
-23 -33 -39 -44 -95 -64 -99 -34 -134 -54 -174 -98 -85 -94 -84 -222 4 -540
l31 -113 66 6 c74 7 197 40 206 55 14 23 22 4 44 -104 l24 -114 146 -40 c80
-23 172 -46 203 -52 l57 -11 75 43 74 43 -13 31 c-7 17 -22 69 -34 115 -27
106 -30 289 -5 310 8 7 26 34 39 59 15 29 35 52 52 59 15 6 44 25 63 40 l34
29 -59 133 c-65 146 -103 203 -155 234 -31 17 -52 20 -167 20 l-133 0 0 -36z"/>
<path d="M15310 10501 c-36 -21 -270 -156 -520 -301 -250 -144 -463 -269 -472
-277 -17 -15 -18 -49 -18 -448 0 -444 1 -455 40 -455 8 0 101 49 205 110 179
103 190 108 195 87 7 -25 126 -95 177 -104 26 -4 34 -2 39 13 3 11 14 38 25
62 10 23 19 51 19 61 0 19 30 51 48 51 6 0 23 -22 37 -50 14 -27 29 -50 33
-50 20 0 52 34 52 55 0 20 -15 35 -70 72 -53 34 -70 52 -68 66 2 13 59 52 183
124 99 57 188 112 198 120 16 15 17 49 17 448 0 444 -1 455 -39 455 -9 0 -45
-17 -81 -39z m78 -413 l-3 -372 -498 -288 c-275 -158 -503 -286 -508 -282 -11
6 -12 714 -1 730 7 12 992 584 1005 584 4 0 6 -167 5 -372z m-468 -692 c0 -16
-18 -31 -27 -22 -8 8 5 36 17 36 5 0 10 -6 10 -14z"/>
<path d="M14878 10092 l-408 -236 0 -298 c0 -178 4 -298 9 -298 5 0 189 103
408 230 l398 230 5 297 c3 164 3 301 0 304 -3 4 -188 -99 -412 -229z m322
-155 c0 -147 -3 -208 -12 -219 -14 -17 -533 -318 -549 -318 -5 0 -9 89 -9 209
0 181 2 210 16 222 34 28 520 307 537 308 16 1 17 -15 17 -202z m-642 -449
c-4 -29 -38 -38 -38 -10 0 19 11 29 33 31 5 1 7 -9 5 -21z m-18 -42 c0 -2 -8
-10 -17 -17 -16 -13 -17 -12 -4 4 13 16 21 21 21 13z"/>
<path d="M14305 10488 c-32 -19 -54 -51 -55 -80 0 -57 94 -83 194 -54 55 16
56 17 56 54 0 29 -7 43 -31 65 -26 23 -40 27 -88 27 -31 0 -65 -6 -76 -12z"/>
<path d="M14095 10387 c-22 -13 -249 -144 -505 -291 -256 -148 -480 -279 -497
-293 -30 -22 -33 -29 -33 -78 l0 -53 -85 -48 c-56 -31 -81 -50 -73 -55 7 -5
23 -1 36 7 12 8 27 12 32 9 15 -9 2 -25 -15 -18 -8 3 -15 0 -15 -7 0 -17 30
-39 53 -40 10 0 15 -5 12 -10 -4 -6 -11 -8 -16 -5 -5 4 -9 2 -9 -3 0 -14 -91
-66 -113 -65 -9 1 -15 -2 -12 -8 4 -5 -1 -9 -9 -9 -10 0 -13 6 -10 15 4 10 0
15 -16 15 -11 0 -18 -4 -15 -10 3 -5 -1 -10 -9 -10 -9 0 -16 4 -16 9 0 5 -27
8 -59 7 -68 -4 -151 -45 -151 -74 0 -11 39 -39 112 -82 62 -36 119 -67 126
-68 8 -2 65 26 128 62 63 36 116 66 119 66 3 0 5 -79 5 -175 l0 -174 53 31
c28 17 62 38 75 45 13 8 22 23 22 39 0 14 5 24 13 23 6 -1 24 3 38 10 20 10
32 10 50 1 23 -11 23 -10 5 4 -11 9 -23 16 -28 16 -12 0 2 28 17 34 8 3 12 0
9 -8 -5 -14 92 -64 103 -53 3 4 1 7 -5 7 -18 0 -14 37 4 44 19 7 51 -10 239
-127 l150 -94 5 -289 5 -289 3 293 2 292 -212 140 c-117 77 -208 140 -202 140
5 0 15 -5 22 -12 9 -9 12 -8 12 5 0 9 8 17 18 17 9 0 28 9 42 20 15 11 34 17
50 14 19 -3 98 38 330 174 l305 178 3 357 c1 235 -1 365 -8 377 -14 26 -36 25
-85 -3z m-1048 -769 c-2 -7 -12 -12 -22 -10 -9 2 -14 -1 -11 -6 7 -11 -19 -24
-28 -14 -8 8 34 41 52 42 8 0 12 -6 9 -12z m13 -28 c0 -6 -8 -14 -17 -17 -10
-4 -21 -11 -25 -17 -5 -8 -11 -7 -20 2 -9 9 -9 12 1 12 7 0 19 7 27 15 18 17
34 20 34 5z m0 -39 c0 -5 -6 -11 -12 -14 -10 -3 -10 -7 1 -20 19 -23 5 -21
-21 3 -19 17 -19 20 -5 20 9 0 17 5 17 10 0 6 5 10 10 10 6 0 10 -4 10 -9z
m-70 -11 c0 -5 -4 -10 -9 -10 -6 0 -13 5 -16 10 -3 6 1 10 9 10 9 0 16 -4 16
-10z m45 -50 c3 -5 -1 -10 -9 -10 -9 0 -16 5 -16 10 0 6 4 10 9 10 6 0 13 -4
16 -10z m-35 -19 c0 -11 -30 -25 -49 -22 -7 1 -10 -2 -6 -8 3 -6 -1 -11 -9
-11 -9 0 -16 4 -16 9 0 11 30 25 48 22 6 -1 12 3 12 9 0 5 5 10 10 10 6 0 10
-4 10 -9z m50 -11 c0 -5 -2 -10 -4 -10 -3 0 -8 5 -11 10 -3 6 -1 10 4 10 6 0
11 -4 11 -10z m-20 -14 c0 -11 -19 -15 -25 -6 -3 5 1 10 9 10 9 0 16 -2 16 -4z
m-320 -26 c-29 -22 -36 -24 -45 -10 -3 6 3 10 15 10 12 0 18 5 15 10 -3 6 4
10 17 10 l23 0 -25 -20z m284 -1 c-3 -5 -9 -7 -14 -4 -4 3 -10 0 -12 -7 -3 -7
-10 -8 -17 -4 -9 6 -7 12 11 21 25 13 42 10 32 -6z m-214 1 c0 -5 -4 -10 -9
-10 -6 0 -13 5 -16 10 -3 6 1 10 9 10 9 0 16 -4 16 -10z m130 0 c0 -5 -4 -10
-10 -10 -5 0 -10 5 -10 10 0 6 5 10 10 10 6 0 10 -4 10 -10z m150 4 c0 -11
-42 -44 -57 -44 -23 0 -14 19 12 26 14 3 25 10 25 15 0 5 5 9 10 9 6 0 10 -3
10 -6z m-225 -20 c15 -10 25 -12 25 -5 0 6 5 11 10 11 19 0 10 -19 -12 -26
-13 -4 -24 -2 -26 5 -2 6 -10 11 -18 11 -8 0 -14 5 -14 10 0 14 7 13 35 -6z
m-85 2 c0 -11 -19 -15 -25 -6 -3 5 1 10 9 10 9 0 16 -2 16 -4z m-95 -16 c-3
-5 -13 -10 -21 -10 -8 0 -14 5 -14 10 0 6 9 10 21 10 11 0 17 -4 14 -10z m59
-11 c-3 -5 -10 -7 -15 -3 -5 3 -7 10 -3 15 3 5 10 7 15 3 5 -3 7 -10 3 -15z
m76 11 c0 -5 -2 -10 -4 -10 -3 0 -8 5 -11 10 -3 6 -1 10 4 10 6 0 11 -4 11
-10z m150 6 c0 -11 -19 -15 -25 -6 -3 5 1 10 9 10 9 0 16 -2 16 -4z m-36 -27
c-3 -5 -10 -7 -15 -3 -5 3 -7 10 -3 15 3 5 10 7 15 3 5 -3 7 -10 3 -15z m-219
1 c3 -5 -3 -10 -15 -10 -12 0 -18 5 -15 10 3 6 10 10 15 10 5 0 12 -4 15 -10z
m85 6 c0 -11 -19 -15 -25 -6 -3 5 1 10 9 10 9 0 16 -2 16 -4z m60 -12 c0 -2
-7 -4 -15 -4 -8 0 -15 4 -15 10 0 5 7 7 15 4 8 -4 15 -8 15 -10z m-96 -3 c3
-5 -1 -12 -10 -15 -27 -11 -37 -7 -24 9 14 17 26 19 34 6z m141 -1 c3 -5 -1
-10 -9 -10 -9 0 -16 5 -16 10 0 6 4 10 9 10 6 0 13 -4 16 -10z m95 3 c0 -13
-49 -32 -56 -22 -3 5 2 9 10 9 9 0 16 5 16 10 0 6 7 10 15 10 8 0 15 -3 15 -7z
m-175 -13 c3 -5 -1 -10 -9 -10 -9 0 -16 5 -16 10 0 6 4 10 9 10 6 0 13 -4 16
-10z m50 -10 c3 -5 -1 -10 -9 -10 -9 0 -16 5 -16 10 0 6 4 10 9 10 6 0 13 -4
16 -10z m-85 -9 c0 -12 -28 -22 -34 -12 -3 5 -3 11 1 15 9 9 33 7 33 -3z m144
-12 c-3 -5 -10 -7 -15 -3 -5 3 -7 10 -3 15 3 5 10 7 15 3 5 -3 7 -10 3 -15z
m-94 1 c0 -5 -2 -10 -4 -10 -3 0 -8 5 -11 10 -3 6 -1 10 4 10 6 0 11 -4 11
-10z m65 -10 c3 -5 -1 -10 -9 -10 -9 0 -16 5 -16 10 0 6 4 10 9 10 6 0 13 -4
16 -10z m-85 -4 c0 -11 -19 -15 -25 -6 -3 5 1 10 9 10 9 0 16 -2 16 -4z m40
-26 c0 -5 -7 -10 -15 -10 -8 0 -15 5 -15 10 0 6 7 10 15 10 8 0 15 -4 15 -10z"/>
<path d="M16151 10350 c-5 -17 -8 -37 -5 -45 7 -18 6 -18 -35 -4 -26 9 -36 8
-57 -6 -24 -15 -26 -22 -21 -62 6 -58 42 -95 122 -126 l60 -23 6 -50 c8 -59
33 -124 50 -124 6 0 24 11 41 25 53 45 128 21 128 -41 0 -63 -63 -134 -106
-117 -15 6 -17 0 -11 -53 13 -127 32 -146 150 -145 130 0 235 82 299 232 70
163 71 278 3 338 -18 15 -36 42 -39 58 -8 37 -59 87 -109 108 -28 12 -70 15
-180 13 -136 -1 -144 0 -194 25 -69 35 -88 35 -102 -3z"/>
<path d="M6010 10021 l-535 -310 -5 -160 -5 -161 -240 -139 c-166 -96 -241
-145 -243 -158 -2 -15 23 -33 116 -86 65 -37 123 -67 130 -67 6 0 61 29 123
65 61 36 113 65 115 65 2 0 4 -56 4 -124 0 -95 3 -126 14 -135 18 -15 0 -24
306 153 129 75 238 136 242 136 4 0 8 -20 8 -45 0 -41 -3 -48 -31 -63 -53 -29
-71 -46 -64 -63 7 -19 134 -93 156 -92 23 2 307 165 313 180 3 6 -14 69 -37
139 -24 72 -38 129 -32 131 6 2 62 34 125 71 l115 67 3 439 c2 439 0 466 -32
466 -6 0 -252 -139 -546 -309z m-545 -681 c-3 -5 -13 -10 -21 -10 -8 0 -12 5
-9 10 3 6 13 10 21 10 8 0 12 -4 9 -10z m-40 -20 c3 -5 -3 -10 -13 -10 -11 0
-23 -7 -26 -16 -3 -8 -11 -12 -17 -8 -8 5 -4 13 12 25 28 21 35 23 44 9z m45
-9 c0 -12 -20 -25 -27 -18 -7 7 6 27 18 27 5 0 9 -4 9 -9z m-115 -41 c0 -7 6
-15 14 -18 8 -3 11 0 7 7 -4 6 -1 11 8 11 21 0 21 -16 0 -24 -25 -9 -44 -7
-41 5 1 6 -5 14 -13 17 -8 2 -12 1 -8 -3 7 -7 -150 -105 -168 -105 -21 0 13
28 91 74 90 54 110 61 110 36z m75 10 c0 -5 -4 -10 -9 -10 -6 0 -13 5 -16 10
-3 6 1 10 9 10 9 0 16 -4 16 -10z m40 -10 c0 -5 -2 -10 -4 -10 -3 0 -8 5 -11
10 -3 6 -1 10 4 10 6 0 11 -4 11 -10z m-12 -30 c7 -11 10 -20 7 -20 -3 0 -15
9 -27 20 -16 14 -18 20 -7 20 8 0 20 -9 27 -20z m-113 -10 c3 -5 -1 -10 -9
-10 -9 0 -16 5 -16 10 0 6 4 10 9 10 6 0 13 -4 16 -10z m75 6 c0 -11 -19 -15
-25 -6 -3 5 1 10 9 10 9 0 16 -2 16 -4z m-36 -27 c-3 -5 -10 -7 -15 -3 -5 3
-7 10 -3 15 3 5 10 7 15 3 5 -3 7 -10 3 -15z m-74 1 c0 -5 -4 -10 -9 -10 -6 0
-13 5 -16 10 -3 6 1 10 9 10 9 0 16 -4 16 -10z m135 0 c3 -5 -1 -10 -9 -10 -9
0 -16 5 -16 10 0 6 4 10 9 10 6 0 13 -4 16 -10z m-90 -10 c3 -5 1 -10 -4 -10
-6 0 -11 5 -11 10 0 6 2 10 4 10 3 0 8 -4 11 -10z m-79 -15 c-22 -17 -61 -20
-51 -5 3 5 13 6 22 3 11 -4 14 -3 9 5 -5 8 1 12 16 12 22 -1 22 -1 4 -15z
m134 5 c0 -5 -2 -10 -4 -10 -3 0 -8 5 -11 10 -3 6 -1 10 4 10 6 0 11 -4 11
-10z m-80 -10 c0 -5 -4 -10 -9 -10 -6 0 -13 5 -16 10 -3 6 1 10 9 10 9 0 16
-4 16 -10z m140 6 c0 -11 -19 -15 -25 -6 -3 5 1 10 9 10 9 0 16 -2 16 -4z
m-80 -10 c0 -11 -19 -15 -25 -6 -3 5 1 10 9 10 9 0 16 -2 16 -4z m39 -22 c-14
-17 -39 -19 -39 -3 0 6 7 9 15 5 8 -3 14 -2 14 2 -3 16 2 23 11 17 8 -5 7 -11
-1 -21z m-219 -2 c-8 -3 -18 -9 -21 -15 -4 -5 -12 -6 -19 -2 -14 9 29 35 45
27 5 -3 2 -8 -5 -10z m90 14 c0 -11 -19 -15 -25 -6 -3 5 1 10 9 10 9 0 16 -2
16 -4z m56 -14 c-3 -3 2 -11 12 -18 16 -12 16 -13 0 -14 -9 0 -18 -6 -21 -12
-4 -10 -7 -10 -18 0 -11 10 -10 12 4 12 19 0 23 15 7 25 -6 4 -8 11 -4 16 3 5
10 7 15 3 6 -3 8 -8 5 -12z m-216 1 c0 -15 -53 -34 -64 -23 -7 7 -3 10 12 10
12 0 22 5 22 10 0 6 7 10 15 10 8 0 15 -3 15 -7z m125 -3 c3 -5 -1 -10 -10
-10 -9 0 -13 5 -10 10 3 6 8 10 10 10 2 0 7 -4 10 -10z m60 -10 c3 -5 -1 -10
-9 -10 -9 0 -16 5 -16 10 0 6 4 10 9 10 6 0 13 -4 16 -10z m145 0 c0 -5 -2
-10 -4 -10 -3 0 -8 5 -11 10 -3 6 -1 10 4 10 6 0 11 -4 11 -10z m-242 -18
c-10 -2 -18 -8 -18 -13 0 -5 -7 -9 -15 -9 -8 0 -15 -4 -15 -10 0 -5 14 -7 33
-3 17 3 29 2 25 -2 -4 -4 0 -14 10 -21 16 -13 16 -13 0 -14 -10 0 -18 -4 -18
-10 0 -5 -6 -10 -14 -10 -8 0 -16 -6 -19 -12 -4 -10 -7 -10 -18 0 -11 10 -10
12 4 12 9 0 17 5 17 10 0 6 7 10 16 10 18 0 14 22 -6 28 -7 3 -10 0 -6 -7 12
-18 -13 -12 -36 9 -19 17 -19 20 -5 20 9 0 17 3 17 8 0 11 43 29 55 23 6 -3 2
-7 -7 -9z m-68 -2 c0 -5 -4 -10 -9 -10 -6 0 -13 5 -16 10 -3 6 1 10 9 10 9 0
16 -4 16 -10z m130 0 c0 -5 -2 -10 -4 -10 -3 0 -8 5 -11 10 -3 6 -1 10 4 10 6
0 11 -4 11 -10z m160 0 c0 -5 -4 -10 -9 -10 -6 0 -13 5 -16 10 -3 6 1 10 9 10
9 0 16 -4 16 -10z m-380 -9 c0 -12 -28 -22 -34 -12 -3 5 -3 11 1 15 9 9 33 7
33 -3z m54 -12 c-3 -5 -10 -7 -15 -3 -5 3 -7 10 -3 15 3 5 10 7 15 3 5 -3 7
-10 3 -15z m290 0 c-3 -5 -10 -7 -15 -3 -5 3 -7 10 -3 15 3 5 10 7 15 3 5 -3
7 -10 3 -15z m-144 7 c0 -11 -19 -15 -25 -6 -3 5 1 10 9 10 9 0 16 -2 16 -4z
m-177 -12 c11 -11 -3 -24 -18 -18 -8 4 -12 10 -9 15 6 11 18 12 27 3z m227 2
c0 -11 -19 -15 -25 -6 -3 5 1 10 9 10 9 0 16 -2 16 -4z m-185 -32 c-10 -7 -22
-11 -28 -7 -6 3 -3 11 8 19 10 7 22 11 28 7 6 -3 3 -11 -8 -19z m150 16 c3 -5
-1 -10 -10 -10 -9 0 -13 5 -10 10 3 6 8 10 10 10 2 0 7 -4 10 -10z m90 0 c3
-5 0 -10 -9 -10 -8 0 -16 -6 -19 -12 -4 -10 -7 -10 -18 0 -11 10 -10 12 4 12
9 0 17 5 17 10 0 6 4 10 9 10 6 0 13 -4 16 -10z m-201 -29 c7 -11 -22 -23 -36
-15 -6 4 -5 10 3 15 18 11 26 11 33 0z m140 -12 c-3 -5 -10 -7 -15 -3 -5 3 -7
10 -3 15 3 5 10 7 15 3 5 -3 7 -10 3 -15z m-29 -9 c3 -5 -1 -10 -10 -10 -9 0
-13 5 -10 10 3 6 8 10 10 10 2 0 7 -4 10 -10z m-45 -30 c0 -5 -7 -10 -16 -10
-8 0 -12 5 -9 10 3 6 10 10 16 10 5 0 9 -4 9 -10z"/>
<path d="M14273 10271 c4 -18 7 -41 7 -51 0 -34 102 -52 167 -29 25 8 32 17
37 47 10 62 9 64 -16 50 -34 -18 -161 -17 -183 2 -17 14 -18 13 -12 -19z m85
-23 c18 -18 14 -36 -10 -44 -27 -8 -54 22 -37 43 14 16 31 17 47 1z"/>
<path d="M14331 10233 c7 -12 15 -20 18 -17 3 2 -3 12 -13 22 -17 16 -18 16
-5 -5z"/>
<path d="M17597 9781 c-10 -49 -9 -106 3 -137 10 -24 7 -30 -25 -59 -19 -18
-44 -52 -55 -76 -19 -43 -20 -68 -20 -909 l0 -865 275 -158 c151 -87 281 -157
288 -155 7 2 133 72 280 157 l267 153 0 872 c0 830 -1 873 -19 912 -10 23 -35
54 -54 69 -30 25 -34 32 -26 52 11 30 11 131 -1 158 -7 19 -8 18 -18 -6 -28
-71 -157 -144 -301 -171 -84 -16 -283 -4 -354 21 -114 40 -184 89 -223 157 -9
16 -11 15 -17 -15z m97 -479 c17 -32 6 -62 -23 -62 -34 0 -58 51 -35 75 23 22
42 18 58 -13z m222 -127 c29 -44 -9 -84 -46 -50 -25 22 -26 51 -2 64 25 15 30
14 48 -14z m-245 -42 c54 -29 57 -34 33 -57 -18 -19 -16 -18 -47 -7 -17 7 -27
22 -35 50 -5 23 -8 41 -5 41 3 0 27 -12 54 -27z m223 -129 c47 -26 61 -56 30
-68 -33 -13 -63 5 -74 43 -11 39 -12 51 -6 51 2 0 24 -12 50 -26z"/>
<path d="M3725 9700 c-3 -5 -2 -10 4 -10 5 0 13 5 16 10 3 6 2 10 -4 10 -5 0
-13 -4 -16 -10z"/>
<path d="M3665 9679 c-10 -14 -1 -21 19 -13 9 3 13 10 10 15 -7 12 -21 11 -29
-2z"/>
<path d="M4083 9683 c-6 -2 -21 -33 -33 -68 -24 -73 -42 -85 -160 -110 -40 -8
-76 -18 -81 -21 -27 -16 8 -111 48 -132 79 -41 179 -8 220 72 17 32 37 246 25
257 -4 4 -12 5 -19 2z"/>
<path d="M3605 9649 c-4 -6 -5 -13 -2 -16 7 -7 27 6 27 18 0 12 -17 12 -25 -2z"/>
<path d="M11866 9583 c-9 -55 -7 -131 3 -137 4 -3 11 -27 13 -53 3 -27 11 -62
19 -79 l14 -31 168 97 168 98 -98 7 c-202 15 -230 25 -263 98 l-17 38 -7 -38z"/>
<path d="M14032 9429 c-45 -27 -87 -49 -92 -49 -6 0 -10 -9 -10 -19 0 -19 16
-11 179 87 8 4 12 13 10 19 -2 7 -38 -9 -87 -38z"/>
<path d="M15548 9456 c-10 -7 -18 -16 -18 -19 0 -4 28 -27 62 -52 63 -46 118
-60 118 -30 0 22 -56 81 -94 99 -41 19 -46 19 -68 2z"/>
<path d="M2478 9415 c-2 -19 0 -35 4 -35 4 0 8 16 8 35 0 19 -2 35 -4 35 -2 0
-6 -16 -8 -35z"/>
<path d="M15380 9265 c-69 -40 -125 -77 -125 -82 0 -4 10 -9 23 -11 22 -3 32
-22 12 -22 -6 0 1 -21 15 -47 14 -27 25 -54 25 -60 0 -7 5 -13 11 -13 6 0 9
-6 6 -13 -3 -8 3 -14 14 -14 11 -1 17 2 14 7 -3 4 2 10 10 14 26 10 27 -14 1
-26 -29 -13 -32 -21 -13 -36 9 -8 58 16 192 93 99 58 183 106 187 107 3 2 8
12 10 22 2 15 -14 28 -72 60 -41 23 -94 53 -117 69 -24 15 -48 27 -55 26 -7 0
-69 -33 -138 -74z m195 15 c3 -5 -1 -10 -9 -10 -9 0 -16 5 -16 10 0 6 4 10 9
10 6 0 13 -4 16 -10z m-35 -17 c0 -13 -64 -50 -78 -46 -6 3 -10 9 -7 13 3 5
13 6 22 3 11 -4 14 -3 9 5 -5 8 0 12 13 12 12 0 21 5 21 10 0 6 5 10 10 10 6
0 10 -3 10 -7z m103 -30 c-15 -5 -53 15 -53 28 0 5 15 2 33 -7 17 -10 27 -19
20 -21z m-63 7 c0 -5 -6 -10 -14 -10 -8 0 -16 -6 -19 -12 -4 -10 -7 -10 -18 0
-11 10 -10 12 4 12 9 0 17 5 17 10 0 6 7 10 15 10 8 0 15 -4 15 -10z m-175
-10 c3 -5 -1 -10 -9 -10 -9 0 -16 5 -16 10 0 6 4 10 9 10 6 0 13 -4 16 -10z
m210 -10 c-3 -5 -10 -10 -16 -10 -5 0 -9 5 -9 10 0 6 7 10 16 10 8 0 12 -4 9
-10z m-245 -10 c0 -5 -4 -10 -9 -10 -6 0 -13 5 -16 10 -3 6 1 10 9 10 9 0 16
-4 16 -10z m342 -28 c-18 -6 -63 18 -56 29 3 5 20 1 37 -8 20 -10 27 -18 19
-21z m-272 8 c0 -5 -4 -10 -9 -10 -6 0 -13 5 -16 10 -3 6 1 10 9 10 9 0 16 -4
16 -10z m80 6 c0 -11 -19 -15 -25 -6 -3 5 1 10 9 10 9 0 16 -2 16 -4z m60 -6
c0 -5 -4 -10 -9 -10 -6 0 -13 5 -16 10 -3 6 1 10 9 10 9 0 16 -4 16 -10z m83
-6 c9 -4 17 -11 17 -16 0 -5 -6 -7 -12 -4 -7 3 -21 9 -30 12 -10 4 -18 11 -18
16 0 5 6 7 13 4 6 -3 20 -9 30 -12z m-323 -4 c0 -5 -4 -10 -9 -10 -6 0 -13 5
-16 10 -3 6 1 10 9 10 9 0 16 -4 16 -10z m108 -5 c19 7 22 7 22 0 0 -3 -3 -5
-6 -4 -4 0 -10 -3 -13 -8 -13 -17 -50 -33 -56 -23 -3 6 1 10 9 10 9 0 16 4 16
8 0 12 -34 11 -41 -1 -4 -5 -12 -6 -19 -2 -19 12 31 34 53 23 10 -5 26 -7 35
-3z m96 -6 c-3 -5 -10 -7 -15 -3 -5 3 -7 10 -3 15 3 5 10 7 15 3 5 -3 7 -10 3
-15z m70 0 c-3 -5 -10 -7 -15 -3 -5 3 -7 10 -3 15 3 5 10 7 15 3 5 -3 7 -10 3
-15z m-27 -10 c8 -8 17 -8 31 0 25 14 32 14 32 1 0 -20 -37 -30 -64 -17 -14 7
-26 15 -26 20 0 10 14 9 27 -4z m-247 -18 c0 -14 -18 -23 -30 -16 -6 4 -8 11
-5 16 8 12 35 12 35 0z m60 -25 l25 -14 -30 -13 c-17 -8 -33 -18 -37 -24 -5
-6 -11 -6 -20 3 -9 9 -9 12 4 12 9 0 18 7 22 15 3 8 1 15 -4 15 -6 0 -10 5
-10 10 0 14 20 12 50 -4z m120 4 c0 -5 7 -10 15 -10 20 0 19 -16 -1 -24 -24
-9 -46 -7 -39 4 3 5 13 6 22 3 11 -4 14 -3 9 5 -4 7 -14 12 -22 12 -8 0 -14 5
-14 10 0 6 7 10 15 10 8 0 15 -4 15 -10z m65 0 c3 -5 -1 -10 -9 -10 -9 0 -16
5 -16 10 0 6 4 10 9 10 6 0 13 -4 16 -10z m-245 -20 c0 -5 -4 -10 -10 -10 -5
0 -10 5 -10 10 0 6 5 10 10 10 6 0 10 -4 10 -10z m110 -15 c0 -11 -50 -36 -61
-29 -8 4 -4 11 12 20 24 13 49 18 49 9z m34 -26 c-7 -11 -34 -12 -34 -1 0 14
11 21 26 15 8 -3 11 -9 8 -14z m-109 -19 c3 -5 -1 -10 -9 -10 -9 0 -16 5 -16
10 0 6 4 10 9 10 6 0 13 -4 16 -10z m67 -12 c-12 -12 -35 -1 -27 12 3 5 13 6
21 3 10 -4 12 -9 6 -15z"/>
<path d="M13960 9190 c0 -5 5 -10 10 -10 6 0 10 5 10 10 0 6 -4 10 -10 10 -5
0 -10 -4 -10 -10z"/>
<path d="M12050 9176 c22 -21 379 -226 395 -226 13 0 295 158 295 166 0 6 -41
-16 -169 -91 -62 -36 -118 -65 -125 -65 -8 0 -103 52 -212 116 -110 63 -192
108 -184 100z"/>
<path d="M13740 9176 c0 -3 9 -10 20 -16 11 -6 20 -8 20 -6 0 3 -9 10 -20 16
-11 6 -20 8 -20 6z"/>
<path d="M15180 9150 c-12 -7 -12 -12 -3 -21 15 -15 26 -7 21 15 -2 11 -7 13
-18 6z"/>
<path d="M13810 9136 c0 -3 9 -10 20 -16 11 -6 20 -8 20 -6 0 3 -9 10 -20 16
-11 6 -20 8 -20 6z"/>
<path d="M13360 9126 c0 -3 9 -10 20 -16 11 -6 20 -8 20 -6 0 3 -9 10 -20 16
-11 6 -20 8 -20 6z"/>
<path d="M11840 9046 c0 -42 -3 -76 -7 -76 -5 0 -19 9 -33 20 -14 11 -29 20
-35 20 -5 0 -23 -89 -38 -198 -15 -108 -37 -257 -49 -330 -20 -127 -21 -132
-39 -116 -28 25 -92 23 -129 -5 -23 -17 -35 -20 -43 -12 -27 27 -91 6 -101
-34 -5 -21 -10 -24 -26 -15 -40 22 -93 -29 -70 -69 6 -11 0 -20 -22 -34 -24
-15 -29 -23 -25 -45 3 -17 -2 -35 -14 -51 -23 -29 -24 -59 -3 -90 12 -17 13
-26 5 -34 -17 -17 -13 -68 6 -90 14 -15 18 -39 19 -107 1 -49 6 -102 13 -118
15 -37 57 -61 127 -72 31 -5 59 -11 61 -14 9 -9 -31 -58 -61 -73 -17 -9 -82
-35 -145 -59 -63 -24 -123 -52 -134 -61 -18 -17 -42 -47 -248 -318 -157 -206
-169 -252 -96 -351 70 -95 207 -255 268 -312 32 -29 63 -66 70 -81 12 -23 12
-95 2 -432 -7 -225 -10 -623 -7 -899 3 -272 1 -625 -3 -785 l-8 -289 -48 -36
c-26 -20 -98 -61 -160 -92 -132 -66 -152 -83 -142 -128 10 -47 76 -75 175 -74
93 0 162 23 244 79 56 38 179 95 205 95 26 0 42 48 40 121 -1 41 3 133 9 204
31 358 43 504 52 660 11 187 25 359 40 505 5 52 12 139 16 192 6 88 16 130 27
118 3 -3 12 -57 22 -120 9 -63 21 -140 25 -170 12 -75 46 -351 60 -485 14
-142 27 -265 40 -390 29 -279 60 -607 60 -642 0 -21 5 -44 10 -49 7 -7 5 -42
-5 -108 -26 -173 10 -266 103 -266 40 0 99 24 129 52 35 32 48 116 35 218 -7
53 -8 100 -3 125 10 43 27 379 36 720 7 219 -4 398 -31 540 -8 44 -19 168 -24
275 -5 107 -12 232 -15 276 l-7 82 -90 -53 c-118 -69 -128 -65 -128 51 0 59 4
85 14 94 8 6 16 24 18 38 4 31 21 32 26 2 2 -14 10 -20 20 -18 15 3 17 25 20
197 l2 195 -20 -19 c-11 -10 -20 -31 -20 -46 0 -33 -9 -59 -21 -59 -5 0 -9 9
-9 20 0 11 -7 20 -15 20 -12 0 -15 18 -15 99 l0 99 89 51 89 51 6 108 c9 129
24 309 33 377 l6 50 15 -35 c49 -118 117 -346 147 -494 19 -94 35 -180 35
-191 0 -11 7 -33 15 -49 8 -15 15 -35 15 -42 0 -8 -25 -60 -55 -116 -30 -55
-55 -105 -55 -109 0 -19 24 -20 51 0 15 11 32 21 37 21 21 0 -21 -145 -44
-154 -25 -10 -5 -26 31 -26 46 0 137 35 162 63 31 32 43 87 50 222 3 66 10
123 16 126 13 9 -10 327 -34 460 -31 174 -140 591 -190 726 -31 82 -86 132
-183 168 l-78 28 3 176 c3 169 4 177 26 194 25 20 32 74 11 95 -10 10 -7 16
10 28 31 21 30 77 -2 107 -16 16 -21 28 -16 42 8 22 -3 69 -20 90 -7 8 -9 85
-8 222 l3 210 323 -187 c178 -103 327 -191 332 -196 4 -5 24 -130 44 -279 20
-148 39 -283 42 -298 6 -30 29 -46 44 -31 6 6 -1 120 -15 278 -14 148 -23 272
-21 274 3 2 24 -7 47 -21 l42 -25 1 -109 c1 -97 3 -111 25 -141 33 -47 95 -89
141 -97 l40 -7 2 -491 3 -492 25 0 c25 0 25 0 28 108 1 59 6 107 10 107 4 0
239 -134 522 -298 l515 -298 5 -129 c5 -118 7 -130 24 -133 36 -7 46 24 46
147 l1 116 327 188 327 187 3 -102 c2 -81 6 -106 19 -115 11 -9 21 -9 34 -2
17 9 19 24 19 164 l0 155 63 0 c73 0 123 25 133 66 9 35 -3 179 -16 205 -11
20 -13 20 -30 4 -20 -19 -77 -24 -122 -12 l-28 7 -2 539 -3 540 -370 -215
c-203 -117 -380 -214 -391 -214 -12 0 -327 176 -699 391 -372 215 -679 389
-681 387 -2 -3 0 -18 5 -34 7 -23 4 -35 -10 -53 -25 -31 -24 -68 5 -144 23
-61 42 -147 33 -147 -8 0 -97 51 -101 58 -2 4 -9 68 -15 142 -7 74 -14 153
-17 175 l-4 40 -51 -4 -51 -3 6 -32 c14 -69 37 -237 34 -249 -2 -9 -121 55
-325 172 l-323 186 0 186 0 186 -27 14 c-16 7 -31 15 -35 17 -5 2 -8 -30 -8
-72z m0 -463 c-1 -322 -2 -354 -15 -318 -17 47 -47 75 -81 75 -16 0 -24 6 -24
18 0 22 112 582 116 582 2 0 4 -161 4 -357z m1050 -426 c0 -4 -11 0 -25 9 -19
13 -25 25 -25 53 l1 36 24 -45 c13 -25 24 -48 25 -53z m16 -93 c36 -21 44 -31
44 -55 0 -33 -6 -35 -38 -13 -21 15 -69 94 -56 94 3 0 25 -12 50 -26z m-1066
-454 c0 -60 -3 -110 -6 -110 -3 0 -33 28 -65 61 -69 71 -80 113 -29 103 34 -7
80 17 80 41 0 8 5 15 10 15 6 0 10 -43 10 -110z m-383 -202 c-3 -8 -6 -5 -6 6
-1 11 2 17 5 13 3 -3 4 -12 1 -19z m-353 -637 l-7 -161 -58 96 c-33 52 -59 98
-59 102 0 9 123 132 128 128 2 -3 0 -77 -4 -165z"/>
<path d="M13888 9089 c6 -7 12 -23 12 -36 0 -26 7 -28 33 -9 16 13 15 15 -20
36 -21 12 -32 16 -25 9z"/>
<path d="M13430 9086 c0 -3 9 -10 20 -16 11 -6 20 -8 20 -6 0 3 -9 10 -20 16
-11 6 -20 8 -20 6z"/>
<path d="M13500 9046 c0 -3 9 -10 20 -16 11 -6 20 -8 20 -6 0 3 -9 10 -20 16
-11 6 -20 8 -20 6z"/>
<path d="M13550 9016 c0 -3 14 -12 30 -21 17 -9 30 -13 30 -11 0 3 -13 12 -30
21 -16 9 -30 13 -30 11z"/>
<path d="M14882 8977 c-99 -57 -97 -64 51 -150 l117 -68 60 33 60 33 -32 25
c-18 13 -39 25 -48 25 -8 0 -14 6 -12 13 1 6 -4 12 -11 12 -7 0 -17 10 -22 23
-6 12 -20 23 -32 25 -13 2 -20 8 -17 16 3 8 -2 16 -10 19 -9 4 -13 13 -10 22
10 25 -16 17 -94 -28z m88 -1 c0 -11 -19 -15 -25 -6 -3 5 1 10 9 10 9 0 16 -2
16 -4z m-30 -22 c0 -2 -7 -4 -15 -4 -8 0 -15 4 -15 10 0 5 7 7 15 4 8 -4 15
-8 15 -10z m45 -14 c3 -5 0 -10 -9 -10 -8 0 -16 -6 -19 -12 -4 -10 -7 -10 -18
0 -11 10 -10 12 4 12 9 0 17 5 17 10 0 6 4 10 9 10 6 0 13 -4 16 -10z m-95
-10 c0 -5 -7 -10 -15 -10 -8 0 -15 5 -15 10 0 6 7 10 15 10 8 0 15 -4 15 -10z
m144 -11 c-3 -5 -10 -7 -15 -3 -5 3 -7 10 -3 15 3 5 10 7 15 3 5 -3 7 -10 3
-15z m-29 -9 c3 -5 -1 -10 -9 -10 -9 0 -16 5 -16 10 0 6 4 10 9 10 6 0 13 -4
16 -10z m-75 -4 c0 -11 -19 -15 -25 -6 -3 5 1 10 9 10 9 0 16 -2 16 -4z m40
-14 c0 -15 -11 -21 -27 -15 -12 5 -12 7 -1 14 17 11 28 11 28 1z m80 -2 c0 -5
-4 -10 -9 -10 -6 0 -13 5 -16 10 -3 6 1 10 9 10 9 0 16 -4 16 -10z m-45 -26
c-10 -7 -22 -11 -28 -7 -6 3 -3 11 8 19 10 7 22 11 28 7 6 -3 3 -11 -8 -19z
m65 2 c0 -11 -19 -15 -25 -6 -3 5 1 10 9 10 9 0 16 -2 16 -4z m-37 -12 c11
-11 -3 -24 -18 -18 -8 4 -12 10 -9 15 6 11 18 12 27 3z m77 -4 c0 -5 -7 -10
-15 -10 -8 0 -15 -4 -15 -9 0 -13 -28 -22 -35 -11 -3 5 7 15 22 23 35 18 43
20 43 7z"/>
<path d="M13634 8966 c11 -9 23 -16 28 -16 4 0 8 -11 8 -25 0 -28 8 -31 33
-12 15 11 11 15 -35 40 -29 16 -44 21 -34 13z"/>
<path d="M14074 8888 c-11 -18 26 -38 74 -38 45 0 82 14 82 31 0 17 -29 21
-44 6 -16 -16 -69 -14 -74 2 -5 15 -29 14 -38 -1z"/>
<path d="M4520 8856 c24 -22 302 -177 308 -171 7 7 19 -1 -154 98 -144 83
-185 103 -154 73z"/>
<path d="M13887 8859 c7 -7 15 -10 18 -7 3 3 -2 9 -12 12 -14 6 -15 5 -6 -5z"/>
<path d="M14589 8804 c-6 -8 -9 -17 -7 -20 3 -3 60 -38 127 -79 118 -72 121
-74 131 -52 11 22 11 22 -5 2 -16 -20 -17 -20 -13 3 3 19 -13 33 -109 92 -95
58 -113 67 -124 54z"/>
<path d="M12221 8645 c-6 -47 -9 -90 -6 -95 8 -13 32 -13 39 -1 8 13 39 162
34 166 -2 2 -15 6 -29 10 -26 6 -26 6 -38 -80z"/>
<path d="M5442 8630 c-54 -13 -60 -27 -16 -39 69 -19 204 -7 204 19 0 10 -89
30 -128 29 -15 -1 -42 -5 -60 -9z"/>
<path d="M15372 8552 c-35 -20 -61 -43 -60 -50 2 -8 83 -39 203 -76 110 -35
246 -79 301 -99 l102 -36 16 57 c26 93 31 153 15 163 -22 14 -26 12 -53 -35
-32 -56 -70 -86 -107 -86 -38 0 -163 66 -264 140 -46 33 -85 60 -87 60 -2 -1
-31 -18 -66 -38z"/>
<path d="M10860 8542 c0 -27 -49 -99 -111 -164 -46 -48 -64 -59 -123 -77 -97
-30 -224 -29 -319 3 -40 13 -91 28 -113 35 -87 24 -118 79 -72 128 12 13 20
25 17 27 -2 2 -24 6 -48 7 l-45 4 -9 -40 c-13 -61 -1 -240 23 -329 27 -99 78
-209 124 -262 21 -25 59 -52 98 -70 59 -27 71 -29 188 -29 117 0 129 2 188 29
76 35 120 84 167 183 60 124 80 219 80 373 0 111 -3 141 -18 168 -20 36 -27
40 -27 14z"/>
<path d="M7133 8501 c-23 -19 -23 -21 -23 -310 0 -272 1 -294 22 -348 54 -148
144 -206 312 -205 188 1 279 83 336 306 48 188 53 428 10 503 -19 34 -68 81
-74 71 -1 -1 -19 -31 -40 -66 l-38 -63 33 -30 32 -30 -28 -29 c-38 -39 -123
-70 -211 -77 -93 -7 -199 23 -252 71 l-36 34 33 33 c27 26 31 36 22 48 -6 9
-23 37 -39 63 -15 26 -29 48 -32 48 -3 -1 -15 -9 -27 -19z"/>
<path d="M4900 8325 c-11 -13 -10 -14 4 -9 9 3 16 10 16 15 0 13 -6 11 -20 -6z"/>
<path d="M4823 8279 c-29 -17 -53 -33 -53 -36 0 -5 89 44 105 58 16 16 1 9
-52 -22z"/>
<path d="M4728 8224 c-38 -20 -36 -28 2 -9 17 9 30 18 30 20 0 7 -1 6 -32 -11z"/>
<path d="M4903 8191 c-60 -38 -83 -61 -64 -61 5 0 11 5 13 11 2 5 11 7 21 4
20 -8 23 -57 5 -73 -21 -16 -482 -264 -493 -265 -6 0 -148 79 -316 176 -320
184 -339 195 -339 180 0 -4 147 -93 328 -197 l327 -190 293 149 292 150 0 77
c0 43 -2 78 -3 78 -2 0 -31 -18 -64 -39z"/>
<path d="M4154 8188 c-4 -7 -3 -8 5 -4 18 11 47 -2 59 -27 6 -12 11 -16 11 -9
1 16 -35 52 -53 52 -8 0 -18 -5 -22 -12z"/>
<path d="M4633 8169 c-29 -17 -53 -33 -53 -36 0 -5 89 44 105 58 16 16 1 9
-52 -22z"/>
<path d="M4390 8150 c8 -5 20 -10 25 -10 6 0 3 5 -5 10 -8 5 -19 10 -25 10 -5
0 -3 -5 5 -10z"/>
<path d="M4538 8114 c-38 -20 -36 -28 2 -9 17 9 30 18 30 20 0 7 -1 6 -32 -11z"/>
<path d="M4160 8116 c0 -2 8 -10 18 -17 15 -13 16 -12 3 4 -13 16 -21 21 -21
13z"/>
<path d="M15280 8095 c0 -2 39 -32 88 -68 232 -172 486 -310 600 -325 63 -9
64 -9 74 17 11 29 72 248 83 299 13 61 -19 34 -60 -51 -52 -106 -85 -131 -167
-124 -67 6 -225 68 -455 178 -90 43 -163 76 -163 74z"/>
<path d="M4474 8074 c-18 -14 -18 -15 4 -4 12 6 22 13 22 15 0 8 -5 6 -26 -11z"/>
<path d="M4349 8064 c-2 -13 3 -59 6 -62 3 -3 75 38 75 44 0 2 -6 1 -14 -2 -8
-3 -26 2 -40 11 -14 10 -26 13 -27 9z"/>
<path d="M9331 7977 c14 -12 119 -68 119 -63 0 6 -105 66 -115 66 -5 0 -6 -2
-4 -3z"/>
<path d="M9163 7887 c-29 -17 -53 -34 -53 -37 0 -3 20 -16 45 -28 41 -20 45
-20 45 -4 0 9 9 23 20 30 25 15 13 21 253 -125 l187 -115 0 -328 c0 -351 1
-342 -53 -355 -15 -4 -27 -11 -27 -16 0 -4 -28 -24 -62 -44 l-62 -36 -140 95
c-78 53 -144 96 -147 96 -4 0 -9 -20 -11 -44 -7 -59 -57 -163 -97 -202 -54
-53 -169 -72 -257 -44 -85 27 -159 141 -172 265 l-7 63 -210 -122 -210 -121 0
-245 0 -244 148 -85 c170 -99 226 -142 281 -214 86 -114 119 -219 114 -362
l-3 -88 -80 -48 -80 -47 -6 111 c-13 226 -105 375 -304 492 -285 169 -648 375
-658 375 -7 0 -86 -43 -176 -95 l-163 -95 -54 31 c-30 17 -60 29 -67 27 -36
-9 -577 -329 -618 -367 -33 -29 -61 -67 -84 -115 -33 -68 -38 -74 -109 -114
-40 -23 -77 -49 -80 -58 -12 -31 -7 -419 6 -432 9 -9 9 -12 0 -12 -8 0 -12
-39 -14 -132 l-3 -132 -245 -71 -245 -71 0 -29 c0 -27 15 -37 265 -182 146
-84 273 -153 283 -153 9 0 136 34 281 75 l264 76 176 -101 c96 -55 180 -100
185 -100 10 0 1249 714 1308 753 18 12 36 29 40 37 4 8 10 69 13 135 l5 119
83 48 82 47 0 -364 c0 -263 -3 -365 -11 -365 -8 0 -8 -4 0 -13 7 -9 12 -120
13 -342 l3 -329 95 -56 95 -56 538 311 537 310 0 1175 0 1176 -90 51 c-87 50
-90 51 -90 28 0 -19 -13 -32 -61 -60 -33 -19 -65 -32 -71 -29 -6 4 -14 0 -19
-7 -5 -8 -9 122 -9 312 l0 326 -212 138 c-117 76 -222 143 -233 150 -17 11
-28 8 -72 -18z m-1300 -1691 c203 -116 207 -119 207 -151 0 -32 -5 -35 -134
-109 -74 -42 -137 -76 -140 -76 -3 0 -6 26 -6 58 l0 57 -190 108 c-105 60
-190 112 -190 117 0 17 211 129 230 122 9 -4 110 -60 223 -126z m-541 -116
c86 -49 144 -88 139 -93 -13 -13 -403 -237 -412 -237 -4 0 -75 39 -158 87 -94
54 -146 90 -138 95 289 171 404 236 412 235 6 -1 76 -40 157 -87z m1204 -815
c8 -19 -22 -65 -41 -65 -20 0 -19 39 2 62 20 22 32 23 39 3z m-118 -82 c-3
-30 -35 -55 -143 -113 -70 -38 -94 -35 -72 9 12 24 179 130 205 131 9 0 12
-10 10 -27z m-1673 -343 c98 -57 131 -81 133 -98 2 -12 2 -22 0 -22 -2 0 -129
-36 -283 -80 -154 -44 -290 -80 -302 -80 -12 0 -105 48 -207 107 -149 86 -186
112 -186 129 0 21 47 36 558 184 30 8 53 -3 287 -140z"/>
<path d="M7123 6063 c9 -2 23 -2 30 0 6 3 -1 5 -18 5 -16 0 -22 -2 -12 -5z"/>
<path d="M7171 6056 c2 -2 18 -6 34 -10 22 -5 26 -4 15 4 -14 9 -59 15 -49 6z"/>
<path d="M7108 6022 c19 -21 27 -20 19 3 -4 8 -13 15 -22 15 -13 0 -12 -3 3
-18z"/>
<path d="M7036 6021 c-6 -10 57 -51 77 -51 7 1 -7 11 -31 23 -24 13 -40 26
-36 30 4 4 5 7 1 7 -3 0 -8 -4 -11 -9z"/>
<path d="M7327 5986 c-10 -8 -14 -17 -8 -20 11 -7 61 13 61 26 0 13 -33 9 -53
-6z"/>
<path d="M7006 5976 c18 -8 37 -22 43 -33 9 -16 10 -16 11 -1 0 17 -47 48 -72
48 -7 -1 1 -7 18 -14z"/>
<path d="M6944 5968 c-8 -12 30 -48 50 -48 6 0 -1 8 -17 18 -15 9 -25 22 -22
29 6 16 -1 17 -11 1z"/>
<path d="M7243 5938 c-27 -13 -30 -28 -5 -28 21 1 54 25 45 33 -8 9 -13 8 -40
-5z"/>
<path d="M6860 5911 c0 -10 39 -36 45 -29 2 2 -8 11 -21 21 -13 10 -24 13 -24
8z"/>
<path d="M7137 5876 c-13 -10 -15 -15 -5 -19 13 -4 68 19 68 28 0 11 -46 4
-63 -9z"/>
<path d="M7047 5826 c-10 -8 -14 -17 -8 -20 11 -7 61 13 61 26 0 13 -33 9 -53
-6z"/>
<path d="M9460 7906 c0 -3 14 -12 30 -21 17 -9 30 -13 30 -11 0 3 -13 12 -30
21 -16 9 -30 13 -30 11z"/>
<path d="M2579 7857 c-28 -19 -34 -30 -37 -62 -3 -46 22 -94 63 -121 22 -14
32 -15 65 -5 54 16 75 49 63 98 -7 33 -15 40 -53 54 -31 12 -46 23 -48 38 -4
27 -11 26 -53 -2z"/>
<path d="M9530 7866 c0 -3 57 -37 173 -103 4 -2 7 -2 7 1 0 3 -57 37 -172 103
-5 2 -8 2 -8 -1z"/>
<path d="M9071 7827 c14 -12 119 -68 119 -63 0 6 -105 66 -115 66 -5 0 -6 -2
-4 -3z"/>
<path d="M9218 7793 c7 -3 16 -2 19 1 4 3 -2 6 -13 5 -11 0 -14 -3 -6 -6z"/>
<path d="M15266 7763 c-2 -10 -15 -96 -27 -190 -13 -95 -26 -173 -31 -173 -11
0 -10 33 2 66 6 15 8 29 5 32 -10 11 -28 -17 -39 -63 -7 -25 -16 -47 -22 -48
-16 -3 -16 50 1 82 8 17 12 31 7 31 -20 0 -42 -40 -63 -120 -13 -46 -31 -92
-41 -102 -35 -35 -17 -48 66 -48 29 0 55 -2 58 -5 3 -3 -3 -58 -13 -123 -35
-226 -35 -202 -6 -202 30 0 27 -7 62 170 15 74 28 136 30 138 1 1 28 -4 61
-13 80 -21 152 -19 190 4 28 17 32 25 37 80 7 65 0 145 -15 174 -9 17 -11 17
-27 3 -20 -18 -79 -21 -132 -6 -54 15 -61 28 -48 88 10 50 11 51 32 37 51 -33
174 -39 184 -9 1 5 -30 31 -71 57 -40 26 -101 72 -134 103 -50 45 -61 51 -66
37z"/>
<path d="M9200 7756 c0 -3 14 -12 30 -21 17 -9 30 -13 30 -11 0 3 -13 12 -30
21 -16 9 -30 13 -30 11z"/>
<path d="M9734 7746 c11 -9 24 -16 29 -16 5 0 7 -9 4 -19 -8 -31 6 -41 31 -23
l22 17 -53 28 c-28 16 -43 21 -33 13z"/>
<path d="M16703 7733 c-24 -14 -43 -29 -43 -34 0 -12 148 -905 155 -936 5 -23
38 -32 50 -14 3 5 -9 121 -25 258 -17 136 -44 360 -60 497 -16 137 -31 250
-32 251 -2 1 -22 -9 -45 -22z"/>
<path d="M9270 7716 c0 -3 57 -37 173 -103 4 -2 7 -2 7 1 0 3 -57 37 -172 103
-5 2 -8 2 -8 -1z"/>
<path d="M9474 7596 c11 -9 24 -16 29 -16 5 0 7 -9 4 -19 -8 -32 7 -44 32 -24
l22 18 -53 28 c-29 16 -44 21 -34 13z"/>
<path d="M9759 7553 c-13 -17 -13 -17 6 -3 11 8 22 16 24 17 2 2 0 3 -6 3 -6
0 -17 -8 -24 -17z"/>
<path d="M9808 7543 c5 -21 7 -23 10 -9 2 10 0 22 -6 28 -6 6 -7 0 -4 -19z"/>
<path d="M9095 7541 c-27 -11 -109 -100 -130 -140 -16 -32 -15 -61 4 -61 5 0
23 24 39 53 38 68 142 162 142 130 0 -5 -22 -27 -49 -50 -61 -53 -105 -125
-103 -172 1 -19 -7 -49 -19 -68 l-21 -33 21 -32 c18 -29 20 -31 26 -13 17 55
69 149 116 211 77 103 89 141 51 172 -18 14 -47 15 -77 3z"/>
<path d="M9421 7524 c0 -11 3 -14 6 -6 3 7 2 16 -1 19 -3 4 -6 -2 -5 -13z"/>
<path d="M9741 7504 c0 -11 3 -14 6 -6 3 7 2 16 -1 19 -3 4 -6 -2 -5 -13z"/>
<path d="M9784 7488 l-19 -23 23 19 c21 18 27 26 19 26 -2 0 -12 -10 -23 -22z"/>
<path d="M16258 7497 c-23 -9 -28 -17 -28 -43 0 -33 18 -48 45 -38 10 4 15 20
15 50 0 24 -1 44 -2 43 -2 -1 -15 -6 -30 -12z"/>
<path d="M2571 7446 c-19 -11 -29 -11 -43 -2 -16 9 -22 7 -38 -14 -23 -29 -35
-80 -26 -113 6 -26 73 -67 96 -59 8 2 26 14 38 26 57 51 70 132 27 160 -29 19
-24 19 -54 2z"/>
<path d="M15740 7360 c-16 -117 -16 -114 6 -118 26 -6 32 8 52 105 l19 92 -30
11 c-16 5 -31 10 -32 10 -1 0 -8 -45 -15 -100z"/>
<path d="M15987 7423 c-27 -4 -29 -7 -25 -41 18 -146 140 -997 144 -1004 9
-13 34 -9 40 7 5 12 -64 850 -82 1003 -6 45 -6 45 -77 35z"/>
<path d="M9499 7403 c-13 -17 -13 -17 6 -3 11 8 22 16 24 17 2 2 0 3 -6 3 -6
0 -17 -8 -24 -17z"/>
<path d="M9548 7394 c3 -17 -3 -34 -19 -52 l-24 -27 28 24 c26 24 36 64 18 75
-4 3 -6 -6 -3 -20z"/>
<path d="M3051 7271 c-33 -31 -34 -43 -10 -109 13 -35 59 -72 88 -72 26 0 68
23 83 44 13 18 9 66 -8 101 -14 31 -19 33 -50 28 -30 -5 -34 -3 -34 16 0 31
-32 27 -69 -8z"/>
<path d="M8983 7108 c-6 -13 -7 -32 -3 -43 6 -16 8 -11 12 20 6 48 4 52 -9 23z"/>
<path d="M10615 5799 c-141 -83 -135 -76 -135 -164 0 -53 4 -75 13 -75 6 0 64
31 127 68 l115 69 3 81 c2 62 0 82 -10 81 -7 -1 -58 -28 -113 -60z m115 -21
c0 -29 -4 -58 -8 -65 -8 -13 -199 -123 -214 -123 -5 0 -8 28 -6 62 l3 63 100
57 c55 32 106 58 112 58 9 0 13 -17 13 -52z"/>
<path d="M16905 5433 c-16 -9 -595 -342 -1285 -741 -690 -398 -1669 -963
-2175 -1255 -506 -291 -933 -542 -948 -556 -62 -56 -59 -20 -60 -775 -1 -622
0 -694 15 -721 25 -45 64 -78 163 -134 94 -54 149 -64 210 -41 42 16 4397
2531 4423 2554 13 12 33 38 43 58 18 36 19 69 19 720 l0 684 -22 44 c-24 48
-68 81 -189 145 -76 40 -143 46 -194 18z m145 -718 c0 -8 -32 -122 -72 -253
-70 -233 -71 -239 -77 -377 l-6 -140 -49 -32 c-26 -18 -52 -33 -57 -33 -5 0
-9 50 -9 112 l0 112 -82 184 c-56 129 -79 189 -72 199 5 7 33 27 61 43 l52 30
15 -22 c7 -13 29 -60 47 -105 18 -46 34 -81 36 -79 2 2 22 72 46 157 l42 154
50 32 c55 36 75 41 75 18z m-482 -601 c1 -181 0 -338 -2 -349 -6 -24 -80 -69
-100 -62 -8 3 -47 63 -88 133 l-73 128 -3 -182 -2 -183 -47 -29 c-26 -17 -53
-30 -60 -30 -10 0 -13 68 -13 345 l0 345 42 30 c22 16 47 30 54 30 7 0 47 -57
89 -127 l75 -128 0 166 c0 118 4 170 13 183 15 21 88 65 102 62 6 -2 11 -123
13 -332z m-588 -26 c18 -43 151 -571 146 -583 -7 -18 -96 -67 -111 -61 -8 3
-17 21 -21 41 -3 20 -10 35 -14 33 -5 -2 -44 -23 -88 -48 -79 -44 -81 -46 -87
-90 -4 -25 -13 -55 -21 -67 -15 -25 -102 -79 -111 -70 -6 7 133 728 148 768 9
22 118 98 142 99 4 0 12 -10 17 -22z m-336 -248 c45 -54 47 -182 6 -294 -28
-73 -102 -154 -179 -195 l-61 -32 0 -112 c0 -62 -4 -117 -8 -123 -4 -5 -29
-22 -55 -37 -34 -18 -49 -22 -53 -14 -2 7 -3 165 -2 352 l3 340 63 38 c192
116 242 129 286 77z m-444 -522 c0 -189 -4 -348 -8 -354 -7 -11 -94 -64 -105
-64 -4 0 -7 75 -8 168 l-1 167 -35 -107 c-30 -95 -38 -110 -69 -128 -18 -12
-37 -19 -42 -16 -5 3 -22 36 -38 73 l-29 68 -5 -180 -5 -180 -50 -32 c-27 -18
-53 -29 -57 -25 -5 5 -7 163 -6 352 l3 344 40 28 c63 44 69 40 127 -77 29 -58
55 -105 59 -105 3 0 27 71 53 158 27 86 54 167 60 180 12 23 81 71 104 72 9 0
12 -75 12 -342z m-598 -58 c39 -30 59 -92 65 -204 15 -283 -83 -492 -259 -553
-58 -20 -102 2 -131 64 -20 43 -22 64 -22 208 0 138 3 170 22 231 60 190 234
326 325 254z m-454 -266 c30 -20 52 -72 52 -123 0 -37 -3 -41 -56 -71 -31 -17
-57 -30 -58 -28 -1 2 -7 16 -14 31 -16 38 -36 43 -77 17 -62 -38 -75 -79 -75
-238 0 -155 8 -180 53 -168 41 10 84 60 98 117 12 46 18 54 64 80 27 16 54 29
59 29 5 0 6 -24 3 -52 -17 -164 -152 -338 -274 -355 -32 -4 -45 0 -71 22 -46
39 -62 103 -62 254 0 190 35 307 120 404 85 96 170 125 238 81z m-538 -183 c6
-11 10 -88 10 -180 l0 -160 -56 -31 c-30 -18 -57 -31 -58 -29 -2 2 -13 25 -24
51 -24 55 -62 83 -114 83 l-38 0 0 76 0 76 113 66 c119 70 150 79 167 48z
m-370 -247 l0 -76 -45 -50 c-53 -59 -101 -154 -116 -231 -11 -52 -14 -57 -63
-84 -28 -15 -55 -30 -59 -32 -5 -1 -7 77 -5 175 4 220 1 214 160 308 62 36
116 66 121 66 4 0 7 -34 7 -76z m137 -104 c136 -48 58 -381 -107 -455 -50 -22
-94 -12 -124 28 -17 24 -21 43 -21 110 1 70 5 91 31 147 38 82 87 138 139 161
48 22 44 22 82 9z m234 -451 c-14 -47 -40 -70 -168 -144 l-108 -63 -3 85 -3
84 45 50 c50 56 89 130 107 205 14 58 21 67 85 104 l49 28 3 -157 c2 -88 -1
-171 -7 -192z m-524 -18 c27 -56 73 -86 122 -79 l32 5 -3 -85 -3 -85 -118 -68
c-65 -38 -124 -69 -130 -69 -33 0 -37 24 -37 195 l0 171 53 31 c28 17 54 31
57 32 3 0 15 -21 27 -48z"/>
<path d="M15872 3728 c-12 -61 -20 -114 -18 -116 9 -8 97 51 93 62 -2 6 -12
46 -22 89 -10 42 -21 77 -25 77 -3 0 -16 -50 -28 -112z"/>
<path d="M15460 3661 l-45 -27 -3 -77 c-2 -42 -1 -77 1 -77 3 0 26 12 52 26
61 35 86 75 83 134 -4 56 -23 61 -88 21z"/>
<path d="M14445 3078 c-51 -40 -65 -88 -65 -235 0 -118 2 -135 19 -152 24 -24
50 -18 85 18 42 44 56 101 56 230 0 156 -26 194 -95 139z"/>
<path d="M10619 5226 c-147 -85 -139 -75 -139 -167 0 -44 3 -79 6 -79 4 0 62
32 130 71 l124 70 0 85 c0 46 -3 84 -7 83 -5 0 -56 -29 -114 -63z m111 -25 c0
-26 -6 -55 -12 -63 -12 -15 -199 -128 -212 -128 -9 0 -7 113 2 126 11 16 206
123 214 118 5 -3 8 -27 8 -53z"/>
<path d="M7925 4252 c-328 -190 -411 -242 -413 -260 -3 -16 2 -22 15 -22 22 0
767 429 800 460 22 21 32 61 16 59 -5 0 -192 -107 -418 -237z"/>
<path d="M7925 4022 c-327 -189 -411 -242 -413 -260 -2 -15 2 -22 14 -22 20 0
753 422 796 458 25 21 39 62 21 62 -5 0 -192 -107 -418 -238z"/>
<path d="M8606 4055 c-59 -35 -114 -61 -122 -58 -8 3 -14 -1 -14 -9 0 -20
-1211 -718 -1246 -718 -37 0 -234 117 -234 139 -1 10 -101 73 -298 187 -273
157 -297 173 -300 200 -6 48 -22 53 -22 6 0 -48 -10 -52 -54 -23 -45 30 -56
18 -56 -55 0 -63 1 -64 38 -87 99 -62 122 -72 142 -59 11 7 25 12 32 12 7 0
132 -69 278 -153 254 -148 265 -155 270 -188 5 -30 14 -38 108 -92 l103 -59
109 63 c104 59 110 64 110 94 0 32 4 35 540 344 533 307 540 311 568 297 27
-14 32 -13 100 25 39 22 76 48 82 59 5 10 10 41 10 69 0 79 -15 80 -144 6z"/>
<path d="M7925 3792 c-328 -190 -411 -242 -413 -260 -3 -16 2 -22 15 -22 22 0
767 429 800 460 22 21 32 61 16 59 -5 0 -192 -107 -418 -237z"/>
<path d="M7344 3905 c-13 -20 -14 -29 -5 -38 10 -9 17 -7 32 12 11 13 18 29
16 34 -7 21 -26 18 -43 -8z"/>
<path d="M7344 3675 c-13 -20 -14 -29 -5 -38 10 -9 17 -7 32 12 11 13 18 29
16 34 -7 21 -26 18 -43 -8z"/>
<path d="M7344 3445 c-13 -20 -14 -29 -5 -38 10 -9 17 -7 32 12 11 13 18 29
16 34 -7 21 -26 18 -43 -8z"/>
</g>
</svg>
