<?xml version="1.0" standalone="no"?>
<!DOCTYPE svg PUBLIC "-//W3C//DTD SVG 20010904//EN"
 "http://www.w3.org/TR/2001/REC-SVG-20010904/DTD/svg10.dtd">
<svg version="1.0" xmlns="http://www.w3.org/2000/svg"
 width="2000.000000pt" height="2000.000000pt" viewBox="0 0 2000.000000 2000.000000"
 preserveAspectRatio="xMidYMid meet">

<g transform="translate(0.000000,2000.000000) scale(0.100000,-0.100000)"
fill="#000000" stroke="none">
<path d="M15498 14993 c23 -2 59 -2 80 0 20 2 1 4 -43 4 -44 0 -61 -2 -37 -4z"/>
<path d="M15418 14983 c7 -3 16 -2 19 1 4 3 -2 6 -13 5 -11 0 -14 -3 -6 -6z"/>
<path d="M15708 14973 c7 -3 16 -2 19 1 4 3 -2 6 -13 5 -11 0 -14 -3 -6 -6z"/>
<path d="M11024 14839 c-100 -53 -743 -409 -1041 -576 -701 -393 -1042 -583
-1048 -583 -3 0 -20 10 -38 22 -18 13 -33 23 -35 24 -1 1 4 14 13 30 18 35 19
90 2 124 -17 33 -73 70 -107 70 -23 0 -29 5 -34 31 -3 17 -23 48 -44 69 -45
45 -96 59 -152 40 -32 -11 -41 -10 -65 6 -35 23 -109 23 -154 1 -19 -9 -50
-17 -69 -17 -27 0 -43 -9 -74 -40 -38 -37 -43 -40 -74 -31 -61 17 -133 -11
-176 -69 -18 -24 -29 -30 -61 -30 -33 0 -46 -7 -79 -40 -39 -39 -40 -42 -35
-93 4 -47 2 -55 -24 -85 -18 -20 -29 -44 -29 -62 0 -31 30 -70 54 -70 11 0 15
-34 18 -167 3 -93 8 -176 13 -186 4 -10 22 -25 39 -34 45 -23 55 -42 56 -98 0
-58 9 -95 21 -95 33 0 72 135 94 325 8 74 22 147 30 162 8 15 16 36 19 46 4
12 16 17 41 17 68 0 127 42 148 104 2 5 11 5 22 -1 26 -15 64 1 97 40 24 29
31 32 77 30 56 -2 64 4 76 70 17 87 129 74 200 -23 41 -55 91 -154 100 -196 3
-16 8 -39 11 -51 5 -26 21 -29 59 -11 37 17 67 72 69 126 l1 46 750 418 c1022
570 1395 779 1395 784 0 7 -6 5 -66 -27z"/>
<path d="M15970 14856 c0 -2 8 -10 18 -17 15 -13 16 -12 3 4 -13 16 -21 21
-21 13z"/>
<path d="M16030 14805 c13 -14 26 -25 28 -25 3 0 -5 11 -18 25 -13 14 -26 25
-28 25 -3 0 5 -11 18 -25z"/>
<path d="M15485 14780 l-40 -7 40 -1 c22 0 51 4 65 8 l25 8 -25 0 c-14 -1 -43
-4 -65 -8z"/>
<path d="M15665 14760 c39 -10 72 -16 73 -15 6 6 -100 35 -122 34 -12 0 11 -8
49 -19z"/>
<path d="M15365 14753 c-131 -53 -235 -157 -286 -284 -11 -30 -41 -148 -65
-264 -25 -115 -47 -211 -49 -213 -8 -8 -188 36 -195 48 -5 8 -9 9 -11 2 -3 -7
-43 -3 -119 14 -136 29 -182 25 -218 -19 -8 -10 -162 -714 -162 -742 0 -3
-470 -5 -1045 -5 l-1045 0 0 -3890 0 -3890 1168 2 1167 3 -1162 2 -1163 3 0
3880 0 3880 1035 0 c821 0 1035 -3 1035 -12 0 -7 -32 -169 -72 -360 -71 -342
-71 -349 -55 -383 10 -21 30 -41 49 -50 29 -14 997 -218 1677 -355 224 -45
246 -48 272 -34 16 8 33 23 39 35 6 11 63 266 125 567 63 301 117 557 120 570
l5 22 905 0 905 0 3 -2287 2 -2288 3 2293 2 2292 -911 0 c-862 0 -910 1 -905
18 25 89 57 279 52 308 -13 65 38 51 -896 245 -322 67 -586 123 -588 124 -7 6
92 446 111 490 56 134 168 235 312 281 22 7 31 13 20 13 -11 0 -38 -7 -60 -16z
m-343 -833 c449 -86 782 -154 772 -157 -6 -2 -118 17 -250 42 -319 61 -797
155 -809 160 -36 13 59 -2 287 -45z m99 -442 c-55 -27 -108 -80 -129 -127 -8
-20 -18 -67 -22 -106 l-7 -70 -2 67 c-1 74 8 105 47 161 25 38 112 97 142 97
8 0 -5 -10 -29 -22z m-95 -419 c19 -22 19 -22 -3 -10 -13 6 -23 16 -23 21 0
15 5 12 26 -11z"/>
<path d="M15895 14630 c27 -27 51 -50 54 -50 3 0 -17 23 -44 50 -27 28 -51 50
-54 50 -3 0 17 -22 44 -50z"/>
<path d="M14831 14374 c0 -11 3 -14 6 -6 3 7 2 16 -1 19 -3 4 -6 -2 -5 -13z"/>
<path d="M14821 14324 c0 -11 3 -14 6 -6 3 7 2 16 -1 19 -3 4 -6 -2 -5 -13z"/>
<path d="M14811 14274 c0 -11 3 -14 6 -6 3 7 2 16 -1 19 -3 4 -6 -2 -5 -13z"/>
<path d="M14781 14134 c0 -11 3 -14 6 -6 3 7 2 16 -1 19 -3 4 -6 -2 -5 -13z"/>
<path d="M14771 14084 c0 -11 3 -14 6 -6 3 7 2 16 -1 19 -3 4 -6 -2 -5 -13z"/>
<path d="M2810 13550 c-65 -8 -135 -31 -177 -58 -13 -8 -48 -47 -78 -87 -30
-41 -72 -87 -92 -104 -41 -34 -111 -61 -157 -61 -19 0 -26 -3 -19 -8 8 -5 -12
-16 -55 -30 -146 -47 -192 -109 -200 -267 -5 -117 -9 -124 -100 -167 -89 -42
-96 -56 -87 -178 7 -99 0 -155 -15 -131 -4 8 -9 2 -13 -17 -4 -19 -20 -41 -43
-59 -44 -33 -94 -107 -94 -139 0 -39 39 -70 230 -181 277 -160 383 -203 545
-218 l78 -8 -23 33 c-39 55 -38 119 4 241 42 123 45 179 16 318 -11 52 -20
106 -20 120 0 41 33 84 108 144 48 39 74 68 85 95 17 42 17 42 110 58 71 12
26 40 -53 32 -38 -3 -40 -2 -40 24 0 74 43 116 167 164 105 41 153 83 153 134
0 34 1 35 38 16 68 -35 161 -167 191 -271 39 -136 72 -590 52 -710 -24 -137
-98 -247 -204 -301 -26 -14 -45 -29 -42 -34 13 -21 51 -8 104 33 31 24 99 70
151 101 52 31 97 60 100 64 3 4 12 8 20 9 8 1 60 18 115 38 55 20 106 38 114
41 11 3 9 10 -8 28 -31 33 -41 79 -40 174 2 105 -10 123 -114 174 -92 45 -107
69 -106 160 l1 63 16 -49 c23 -67 50 -84 160 -100 102 -15 149 -41 178 -98 16
-31 16 -104 0 -153 -3 -11 0 -6 8 10 22 45 20 111 -6 157 -32 56 -86 84 -186
96 -45 6 -93 17 -107 26 -29 19 -46 75 -40 131 4 35 3 36 -4 10 -8 -27 -9 -26
-10 19 -1 68 -27 162 -61 222 -16 29 -26 55 -22 59 4 5 2 5 -4 2 -18 -10 -52
65 -60 133 -9 80 -27 134 -60 177 -71 93 -234 143 -404 123z"/>
<path d="M8614 13540 c-23 -9 -41 -30 -27 -31 83 -5 173 -2 173 7 0 28 -97 44
-146 24z"/>
<path d="M8242 13529 c-33 -7 -60 -25 -51 -32 2 -3 41 -7 87 -10 63 -4 82 -2
82 8 0 23 -72 44 -118 34z"/>
<path d="M8628 13354 c-16 -8 -28 -16 -28 -17 0 -1 36 -2 80 -2 44 0 80 1 80
2 0 1 -13 9 -30 18 -36 19 -67 19 -102 -1z"/>
<path d="M8187 13344 c-38 -21 -31 -25 20 -12 30 7 51 7 74 -1 39 -13 50 -6
23 14 -25 19 -81 18 -117 -1z"/>
<path d="M8476 13320 c4 -14 22 -68 41 -120 62 -172 65 -181 60 -187 -3 -3
-21 -9 -39 -13 l-33 -8 36 -1 c66 -2 67 14 14 157 -47 124 -93 226 -79 172z"/>
<path d="M8192 13234 c-20 -36 13 -73 51 -58 39 14 24 74 -18 74 -13 0 -28 -7
-33 -16z"/>
<path d="M2160 13220 c-11 -8 -7 -9 15 -4 37 8 45 14 19 14 -10 0 -26 -5 -34
-10z"/>
<path d="M8591 13216 c-7 -8 -10 -24 -6 -36 5 -17 13 -20 38 -18 28 3 32 7 32
33 0 25 -4 31 -26 33 -14 2 -31 -4 -38 -12z"/>
<path d="M2083 13181 c-24 -17 -49 -48 -63 -77 -20 -43 -22 -59 -17 -137 3
-49 2 -100 -4 -113 -12 -32 -65 -54 -129 -54 -44 0 -56 -5 -81 -29 -24 -24
-29 -37 -27 -73 l1 -43 4 42 c6 62 39 93 100 93 128 0 155 33 146 176 -5 78
-3 95 15 129 21 41 61 83 97 103 11 6 15 12 9 12 -6 0 -29 -13 -51 -29z"/>
<path d="M3398 13055 c23 -26 43 -57 43 -69 1 -15 3 -16 6 -5 6 22 -32 84 -65
105 -21 14 -17 7 16 -31z"/>
<path d="M7450 12849 c-129 -71 -239 -134 -244 -139 -9 -9 97 -213 241 -463
40 -70 73 -130 73 -134 0 -4 -23 -39 -50 -80 -129 -185 -163 -356 -182 -891
-13 -354 -6 -571 28 -852 16 -140 16 -146 -16 -445 -26 -238 -80 -1348 -67
-1362 4 -4 60 15 123 41 64 26 118 45 120 43 2 -2 -81 -348 -185 -768 l-189
-764 -161 -290 c-364 -653 -647 -1274 -716 -1573 -16 -66 -14 -82 10 -82 8 0
16 -4 19 -9 3 -4 -33 -104 -79 -222 -47 -117 -82 -216 -78 -219 5 -4 269 -110
589 -236 l581 -229 -1896 -5 c-1043 -3 1087 -5 4734 -5 3801 0 4619 1 1918 2
l-4712 3 -6 23 c-12 40 -93 151 -186 256 l-91 103 -39 -38 c-21 -21 -41 -35
-45 -32 -9 9 13 44 40 66 l25 19 -42 41 c-24 23 -48 42 -53 42 -6 0 -28 -11
-49 -25 -20 -15 -39 -24 -42 -21 -11 10 19 45 47 54 l30 11 -50 47 c-48 45
-51 46 -87 36 -21 -5 -46 -13 -57 -17 -14 -6 -18 -4 -14 6 7 20 48 39 86 39
28 0 35 5 48 36 11 27 19 34 32 29 48 -20 48 -20 97 97 301 713 499 1159 578
1298 41 73 134 195 228 302 84 94 119 144 138 198 7 19 73 267 147 550 74 283
136 519 137 523 1 5 137 -211 300 -479 l298 -487 24 -136 c78 -435 105 -530
382 -1331 96 -278 188 -544 205 -592 l29 -86 36 14 c19 9 37 13 40 11 2 -3 44
-122 92 -266 49 -144 91 -265 94 -268 6 -6 1217 395 1231 407 15 14 -36 38
-134 63 -107 28 -290 53 -314 44 -11 -5 -16 -19 -16 -52 0 -25 -4 -45 -9 -45
-15 0 -23 54 -12 83 l11 27 -64 0 c-72 0 -84 -8 -93 -64 -3 -20 -10 -36 -14
-36 -15 0 -10 64 7 88 l15 22 -76 0 -75 0 -30 -47 c-27 -43 -30 -45 -30 -20 0
15 13 41 31 62 l31 35 -17 64 c-17 62 -18 64 -44 56 -15 -4 -42 -15 -60 -24
-44 -23 -49 -15 -11 18 28 23 55 32 83 27 5 -1 6 11 3 27 -6 26 -4 29 49 46
41 15 54 23 50 35 -8 26 -101 343 -303 1036 l-190 650 -38 280 -37 280 -283
724 c-156 398 -284 726 -284 728 0 3 14 2 30 -2 28 -6 30 -5 25 17 -3 12 -43
259 -90 548 -82 513 -86 541 -146 1203 -33 373 -58 681 -54 685 4 4 70 5 148
2 78 -3 223 -5 322 -5 150 0 188 3 227 18 93 36 180 168 248 373 18 54 41 108
51 119 60 67 49 188 -22 244 -57 44 -222 118 -349 156 -56 17 -74 27 -72 39 8
53 10 50 -63 63 -78 13 -371 17 -424 5 -51 -11 -85 -77 -77 -148 l6 -52 -83
19 c-45 10 -85 19 -88 19 -3 0 -9 41 -13 92 -4 51 -8 93 -9 95 -2 1 -171 70
-377 153 -206 84 -380 154 -387 157 -6 2 -29 -30 -53 -76 -35 -67 -63 -102
-158 -195 l-116 -114 -97 177 c-53 97 -126 226 -162 288 l-65 112 41 24 c23
13 130 73 237 132 214 119 205 113 199 120 -3 2 -110 -54 -239 -126z m-966
-7911 c20 -29 20 -34 -4 -58 -27 -27 -56 -25 -76 5 -38 57 41 109 80 53z
m3334 -280 c27 -27 0 -88 -39 -88 -40 0 -65 60 -37 88 7 7 24 12 38 12 14 0
31 -5 38 -12z"/>
<path d="M3446 12909 c-4 -28 -5 -53 -3 -56 3 -2 8 19 12 47 4 28 5 53 2 56
-2 3 -7 -19 -11 -47z"/>
<path d="M8330 12937 c0 -31 29 -76 60 -92 33 -17 76 -20 85 -5 4 6 -6 10 -23
10 -34 0 -76 30 -103 74 -13 22 -19 26 -19 13z"/>
<path d="M3108 12909 c-14 -6 -29 -17 -32 -25 -5 -12 6 -14 71 -12 80 3 102
16 58 36 -30 14 -60 14 -97 1z"/>
<path d="M3145 12761 c-24 -10 -62 -51 -48 -51 6 0 24 7 39 15 21 11 43 14 77
9 56 -7 61 1 12 22 -38 16 -51 16 -80 5z"/>
<path d="M2960 12747 c0 -5 28 -68 61 -140 70 -151 76 -177 39 -188 -17 -5
-19 -7 -7 -8 24 -1 57 17 57 31 0 7 -25 66 -57 132 -56 121 -93 188 -93 173z"/>
<path d="M2715 12724 c-43 -22 -56 -38 -25 -30 57 15 88 17 123 8 44 -12 49 1
7 23 -37 19 -67 19 -105 -1z"/>
<path d="M3180 12615 c-20 -24 -8 -50 27 -53 25 -2 33 1 38 18 13 40 -38 68
-65 35z"/>
<path d="M1781 12615 c0 -5 6 -21 14 -35 8 -14 14 -20 14 -15 0 6 -6 21 -14
35 -8 14 -14 21 -14 15z"/>
<path d="M2808 12599 c-22 -12 -23 -42 -3 -59 35 -29 85 26 53 58 -14 14 -27
15 -50 1z"/>
<path d="M1821 12504 c0 -11 3 -14 6 -6 3 7 2 16 -1 19 -3 4 -6 -2 -5 -13z"/>
<path d="M6715 12439 c-77 -44 -151 -85 -165 -91 -14 -7 -26 -13 -28 -14 -10
-6 331 -634 344 -634 12 0 -41 104 -223 432 -56 102 -103 188 -103 191 0 2 60
37 133 78 72 40 146 81 164 92 l32 18 32 -63 c38 -75 252 -469 281 -516 11
-18 23 -31 25 -28 6 6 -74 158 -214 409 -114 205 -115 207 -128 207 -5 -1 -73
-37 -150 -81z"/>
<path d="M1650 12396 c0 -2 8 -10 18 -17 15 -13 16 -12 3 4 -13 16 -21 21 -21
13z"/>
<path d="M3751 12344 c0 -11 3 -14 6 -6 3 7 2 16 -1 19 -3 4 -6 -2 -5 -13z"/>
<path d="M2884 12313 c10 -42 60 -83 101 -83 19 0 35 5 35 10 0 6 -9 10 -20
10 -34 0 -79 28 -95 60 -19 38 -29 39 -21 3z"/>
<path d="M3750 12289 c0 -19 41 -59 61 -59 8 0 3 6 -11 13 -13 7 -30 24 -37
37 -8 15 -13 19 -13 9z"/>
<path d="M6147 12121 c-40 -26 -47 -36 -12 -18 42 23 62 37 50 36 -5 0 -22 -8
-38 -18z"/>
<path d="M6255 12024 c85 -159 256 -467 268 -482 5 -7 12 -10 14 -8 6 6 -64
137 -209 393 -118 208 -168 274 -73 97z"/>
<path d="M2353 11689 c-60 -40 -147 -110 -195 -157 -102 -99 -130 -157 -149
-299 -12 -96 1 -221 41 -403 144 -649 203 -879 245 -966 l34 -71 -99 -184
c-136 -250 -190 -384 -215 -531 -6 -37 -5 -38 23 -38 l28 0 -7 -52 c-32 -223
33 -599 141 -818 21 -43 29 -81 39 -175 70 -708 85 -1021 57 -1156 -19 -89
-102 -251 -169 -330 -91 -107 -284 -394 -467 -694 -123 -201 -247 -420 -243
-431 2 -6 -62 -97 -141 -204 l-145 -193 402 -302 c304 -228 403 -298 408 -286
3 8 0 36 -8 61 -16 54 -102 235 -145 305 -17 28 -31 56 -31 63 0 6 -4 12 -8
12 -12 0 -52 73 -51 93 1 16 65 102 102 137 9 8 29 32 44 53 16 22 56 68 89
104 74 78 75 76 77 -82 0 -104 11 -306 26 -492 6 -79 8 -83 30 -83 l24 0 0
-195 0 -195 273 -1 c149 -1 373 -4 497 -8 124 -4 227 -6 228 -5 2 2 1 12 -3
23 -3 11 -36 40 -73 65 -67 44 -293 157 -382 191 -52 20 -60 28 -60 73 0 30 2
32 33 32 l32 0 204 803 c112 441 209 810 215 819 6 9 99 87 206 174 303 244
297 238 325 356 39 172 39 293 6 1082 -5 104 -7 197 -5 205 14 58 46 451 51
627 5 179 4 214 -9 235 -9 13 -26 55 -39 93 -21 60 -30 73 -71 100 l-46 32
129 193 c71 107 130 196 132 198 2 2 51 -19 108 -46 107 -51 261 -97 360 -108
l56 -6 67 87 c65 83 69 86 104 84 21 -2 38 2 38 7 1 6 -185 188 -413 405
l-416 395 7 265 c8 303 1 365 -59 485 -32 67 -164 271 -210 326 l-21 26 -34
-40 c-19 -22 -55 -76 -81 -119 -249 -415 -200 -989 120 -1413 31 -40 38 -53
21 -40 -14 11 -145 118 -291 238 l-266 218 -31 137 c-18 75 -56 274 -86 441
l-54 305 18 60 c42 144 110 291 194 418 l43 66 -91 11 c-49 7 -144 30 -211 51
-67 22 -127 40 -132 40 -6 0 -60 -32 -120 -71z m-873 -6543 c19 -23 8 -61 -18
-64 -44 -7 -67 32 -36 62 19 20 38 20 54 2z m824 -648 c15 -25 -3 -52 -37 -56
-21 -3 -28 2 -33 24 -12 46 44 72 70 32z"/>
<path d="M14610 11575 l0 -145 35 0 c34 0 35 1 35 40 0 36 3 40 24 40 17 0 33
-12 53 -40 24 -34 33 -40 66 -40 20 0 37 3 37 8 0 4 -12 24 -26 45 l-26 38 26
24 c48 44 27 142 -35 164 -18 6 -67 11 -110 11 l-79 0 0 -145z m158 73 c18
-18 14 -56 -7 -68 -11 -5 -33 -10 -50 -10 -30 0 -31 1 -31 45 l0 45 38 0 c21
0 43 -5 50 -12z"/>
<path d="M15670 11681 c0 -21 -5 -31 -15 -31 -10 0 -15 -10 -15 -30 0 -20 5
-30 15 -30 11 0 15 -13 15 -54 0 -68 20 -95 75 -102 22 -3 45 -1 52 3 19 13 4
51 -21 55 -18 3 -21 11 -24 51 -3 45 -2 47 22 47 22 0 26 4 26 30 0 25 -4 30
-24 30 -19 0 -25 6 -28 28 -3 23 -8 27 -40 30 -36 3 -38 2 -38 -27z"/>
<path d="M14952 11643 c-57 -28 -76 -86 -46 -148 28 -60 135 -87 185 -46 23
19 23 19 5 40 -14 15 -23 18 -37 11 -35 -19 -89 -6 -89 22 0 4 36 8 80 8 l80
0 0 28 c0 35 -23 68 -60 87 -37 19 -77 19 -118 -2z m102 -59 c4 -11 -5 -14
-39 -14 -48 0 -60 15 -23 29 28 10 55 3 62 -15z"/>
<path d="M15200 11643 c-28 -14 -36 -25 -38 -51 -4 -45 10 -59 74 -72 30 -6
54 -15 54 -20 0 -15 -35 -20 -70 -10 -46 13 -45 14 -58 -15 -11 -23 -9 -25 26
-35 95 -26 172 4 172 68 0 27 -29 49 -78 61 -45 10 -59 17 -50 27 9 8 40 8 71
1 23 -6 29 -4 36 15 12 31 3 38 -55 44 -36 4 -58 0 -84 -13z"/>
<path d="M15442 11643 c-82 -40 -81 -157 2 -197 46 -22 108 -21 137 3 23 19
23 19 5 40 -14 15 -23 18 -37 11 -35 -19 -89 -6 -89 22 0 4 36 8 80 8 72 0 80
2 80 19 0 37 -20 71 -52 91 -40 24 -82 25 -126 3z m94 -50 c17 -17 16 -18 -25
-21 -51 -4 -63 4 -37 24 26 19 41 18 62 -3z"/>
<path d="M16748 11273 c-14 -3 -18 -15 -18 -49 0 -24 -2 -44 -4 -44 -1 0 -17
5 -33 11 -63 21 -134 -33 -136 -105 -2 -84 84 -143 154 -106 13 7 19 7 19 0 0
-5 16 -10 35 -10 l35 0 0 155 c0 167 2 162 -52 148z m-38 -163 c25 -25 25 -42
0 -65 -27 -24 -68 -13 -76 22 -5 20 -2 31 16 45 28 23 35 23 60 -2z"/>
<path d="M13578 11243 c6 -10 31 -53 56 -96 38 -64 46 -86 46 -127 l0 -50 40
0 40 0 0 56 c0 50 6 66 50 139 28 46 50 86 50 89 0 4 -17 6 -37 4 -33 -3 -40
-9 -67 -55 -17 -29 -33 -53 -36 -53 -3 0 -19 24 -35 53 -29 49 -34 52 -74 55
-38 3 -41 1 -33 -15z"/>
<path d="M14730 11115 l0 -145 40 0 40 0 0 40 0 40 45 0 c52 0 99 21 115 49
14 27 12 93 -4 113 -23 31 -81 48 -161 48 l-75 0 0 -145z m144 75 c18 -6 26
-17 26 -33 0 -32 -18 -47 -57 -47 -32 0 -33 1 -33 45 0 49 11 55 64 35z"/>
<path d="M13930 11190 c-116 -28 -103 -201 17 -217 55 -7 84 1 115 32 33 33
42 77 24 120 -24 56 -86 82 -156 65z m88 -99 c4 -27 -24 -61 -49 -61 -25 0
-52 44 -44 70 15 47 86 40 93 -9z"/>
<path d="M14525 11184 c-19 -10 -31 -11 -33 -5 -2 6 -19 11 -38 11 l-34 0 0
-110 0 -110 40 0 40 0 0 68 c0 73 10 92 47 92 20 0 23 5 23 35 0 40 -3 41 -45
19z"/>
<path d="M15060 11188 c-44 -12 -43 -11 -29 -41 10 -23 14 -24 41 -15 21 7 37
7 54 -1 38 -17 28 -28 -30 -33 -30 -3 -62 -10 -70 -17 -24 -20 -20 -77 6 -95
27 -19 89 -21 107 -3 11 10 14 10 18 0 3 -7 20 -13 39 -13 l34 0 0 63 c0 95
-15 136 -55 153 -39 16 -65 16 -115 2z m90 -143 c0 -18 -28 -34 -51 -28 -19 5
-25 24 -12 36 13 14 63 7 63 -8z"/>
<path d="M15333 11190 c-47 -11 -63 -28 -63 -65 0 -40 14 -53 75 -68 26 -7 46
-16 46 -22 -2 -12 -56 -13 -87 -2 -16 6 -23 2 -32 -17 -9 -21 -7 -25 14 -35
35 -16 110 -14 144 4 57 29 47 97 -17 114 -21 6 -46 11 -55 11 -10 0 -18 7
-18 16 0 14 9 16 51 12 45 -5 52 -3 59 16 5 13 3 23 -4 27 -21 12 -81 17 -113
9z"/>
<path d="M15556 11190 c-97 -30 -85 -119 18 -134 46 -7 60 -21 31 -32 -9 -4
-33 -2 -55 4 -36 9 -42 8 -51 -10 -17 -32 4 -43 80 -43 79 0 111 19 111 65 0
34 -17 49 -75 64 -58 14 -55 31 5 30 43 -1 60 8 60 33 0 20 -81 36 -124 23z"/>
<path d="M16195 11194 c-91 -21 -126 -119 -67 -185 35 -39 110 -51 159 -26 39
21 67 78 59 122 -7 33 -55 85 -79 85 -7 0 -21 2 -32 4 -11 2 -29 2 -40 0z m73
-113 c4 -28 -14 -51 -42 -51 -47 0 -63 57 -24 84 19 13 25 14 43 2 11 -7 21
-23 23 -35z"/>
<path d="M16493 11185 c-18 -8 -33 -10 -33 -5 0 6 -16 10 -35 10 l-35 0 0
-110 0 -110 35 0 35 0 0 63 c0 67 17 97 53 97 13 0 17 9 17 35 0 19 -1 35 -2
35 -2 -1 -18 -7 -35 -15z"/>
<path d="M14130 11125 c0 -74 18 -128 48 -144 26 -14 68 -14 93 -1 13 7 19 7
19 0 0 -5 18 -10 40 -10 l40 0 0 110 0 110 -40 0 -40 0 0 -64 c0 -45 -5 -69
-16 -80 -18 -19 -20 -19 -45 -6 -16 9 -19 22 -19 80 l0 70 -40 0 -40 0 0 -65z"/>
<path d="M15738 11083 l39 -108 38 0 c36 0 38 1 60 60 l22 60 20 -60 c19 -59
20 -60 58 -60 l38 0 39 105 c21 58 38 106 38 108 0 1 -15 2 -33 2 -32 0 -34
-3 -57 -67 l-24 -67 -21 64 c-21 63 -23 65 -57 68 -35 3 -36 2 -53 -50 -10
-29 -21 -57 -25 -61 -4 -5 -16 18 -27 50 -19 55 -21 58 -56 61 l-37 3 38 -108z"/>
<path d="M14430 9990 c0 -38 -1 -39 -25 -28 -32 14 -78 -4 -94 -38 -8 -19 -8
-33 3 -59 17 -39 54 -54 92 -36 15 6 24 7 24 1 0 -6 5 -10 10 -10 6 0 10 42
10 105 0 63 -4 105 -10 105 -5 0 -10 -18 -10 -40z m-15 -74 c13 -19 14 -29 6
-45 -25 -46 -91 -33 -91 19 0 50 58 68 85 26z"/>
<path d="M13150 9915 c0 -78 3 -95 15 -95 10 0 15 10 15 30 0 28 2 30 39 30
40 0 79 23 82 50 7 60 -16 80 -92 80 l-59 0 0 -95z m111 65 c43 -23 5 -80 -53
-80 -26 0 -28 2 -28 45 0 44 1 45 31 45 17 0 39 -5 50 -10z"/>
<path d="M13354 9956 c-25 -19 -14 -29 18 -17 28 10 58 -2 58 -24 0 -11 -11
-15 -38 -15 -57 0 -79 -31 -47 -64 10 -10 33 -14 65 -14 l50 1 0 51 c0 31 -6
61 -16 74 -18 25 -60 29 -90 8z m76 -80 c0 -19 -26 -38 -47 -34 -24 4 -29 35
-6 41 35 9 53 7 53 -7z"/>
<path d="M13506 9951 c-25 -27 -7 -58 39 -67 42 -7 50 -17 30 -34 -9 -8 -29
-10 -52 -6 -35 6 -37 5 -19 -9 39 -30 112 -9 105 30 -4 20 -21 31 -61 40 -16
3 -28 12 -28 20 0 17 33 28 61 20 15 -5 20 -3 17 6 -8 23 -71 23 -92 0z"/>
<path d="M13644 9949 c-24 -27 -9 -51 40 -63 25 -7 36 -15 34 -25 -3 -12 -15
-16 -46 -14 -50 2 -56 -13 -8 -22 44 -9 73 1 81 25 9 28 0 38 -46 50 -30 8
-39 16 -37 28 3 13 13 17 41 16 38 -1 49 9 21 20 -30 12 -61 6 -80 -15z"/>
<path d="M13786 9896 c15 -45 31 -76 39 -76 8 0 22 23 32 50 10 28 21 50 25
50 3 0 14 -22 23 -50 9 -27 23 -50 30 -50 7 0 25 30 39 68 28 74 30 82 17 82
-4 0 -16 -21 -26 -47 -10 -27 -21 -52 -25 -56 -4 -4 -16 16 -27 44 -11 29 -25
55 -30 56 -6 2 -19 -19 -28 -46 -9 -28 -20 -53 -25 -56 -4 -2 -16 19 -26 47
-31 84 -47 70 -18 -16z"/>
<path d="M14042 9950 c-31 -29 -31 -93 0 -114 43 -30 94 -18 113 27 31 75 -55
141 -113 87z m83 -26 c22 -23 15 -56 -17 -73 -24 -14 -28 -14 -47 3 -25 23
-27 49 -5 70 20 21 48 20 69 0z"/>
<path d="M14207 9963 c-4 -3 -7 -37 -7 -75 0 -53 3 -68 14 -68 11 0 16 15 18
53 2 43 7 54 26 62 12 5 22 15 22 22 0 16 -6 16 -31 3 -13 -7 -19 -7 -19 0 0
11 -13 13 -23 3z"/>
<path d="M13722 8808 c-7 -7 -12 -20 -12 -30 0 -10 -7 -18 -15 -18 -8 0 -15
-4 -15 -10 0 -5 7 -10 15 -10 12 0 15 -14 15 -65 0 -83 18 -85 22 -2 3 56 5
62 26 65 30 5 28 22 -3 22 -14 0 -25 4 -25 9 0 14 28 33 40 26 5 -3 10 1 10 9
0 19 -40 22 -58 4z"/>
<path d="M13820 8805 c0 -8 7 -15 15 -15 8 0 15 7 15 15 0 8 -7 15 -15 15 -8
0 -15 -7 -15 -15z"/>
<path d="M15660 8778 c0 -33 -3 -39 -12 -30 -19 19 -63 14 -86 -11 -53 -56 2
-144 73 -117 15 6 26 6 30 0 18 -28 25 0 25 95 0 87 -3 105 -15 105 -11 0 -15
-11 -15 -42z m-12 -60 c27 -27 3 -88 -34 -88 -18 0 -54 36 -54 54 0 37 61 61
88 34z"/>
<path d="M13195 8801 c-62 -27 -79 -112 -31 -159 21 -21 36 -27 71 -27 24 0
50 6 56 12 18 18 7 24 -28 14 -38 -11 -72 4 -92 40 -29 52 30 116 92 98 33 -9
47 -5 30 12 -14 14 -74 20 -98 10z"/>
<path d="M14390 8711 c0 -61 4 -101 10 -101 6 0 10 14 10 30 0 28 2 30 39 30
50 0 91 31 91 69 0 41 -31 64 -95 69 l-55 4 0 -101z m108 60 c8 -4 12 -21 10
-37 -2 -22 -10 -30 -37 -37 -49 -12 -61 -4 -61 43 0 40 0 40 38 40 20 0 43 -4
50 -9z"/>
<path d="M13350 8740 c-30 -30 -27 -83 6 -109 30 -24 43 -26 77 -10 71 32 47
139 -30 139 -20 0 -41 -8 -53 -20z m95 -55 c0 -34 -23 -50 -57 -42 -45 12 -48
70 -5 87 31 12 62 -11 62 -45z"/>
<path d="M13520 8685 c0 -43 4 -75 10 -75 6 0 10 22 10 48 0 35 5 54 18 65 42
38 72 13 72 -60 0 -29 5 -53 10 -53 17 0 12 116 -6 134 -18 19 -65 21 -82 4
-9 -9 -12 -9 -12 0 0 7 -4 12 -10 12 -6 0 -10 -32 -10 -75z"/>
<path d="M13830 8685 c0 -43 4 -75 10 -75 6 0 10 32 10 75 0 43 -4 75 -10 75
-6 0 -10 -32 -10 -75z"/>
<path d="M13900 8685 c0 -60 3 -75 15 -75 11 0 15 12 15 49 0 42 4 52 27 69
31 22 24 44 -7 24 -12 -7 -20 -8 -20 -2 0 5 -7 10 -15 10 -12 0 -15 -15 -15
-75z"/>
<path d="M14012 8688 c2 -46 7 -73 16 -76 8 -2 12 11 12 46 0 51 17 82 44 82
23 0 35 -24 38 -74 4 -72 28 -73 28 -2 0 50 3 58 25 68 38 17 55 -4 55 -68 0
-41 4 -54 15 -54 21 0 21 98 -1 128 -17 24 -53 29 -86 11 -14 -8 -23 -8 -31 0
-15 15 -60 14 -75 -1 -9 -9 -12 -9 -12 0 0 7 -7 12 -15 12 -13 0 -15 -12 -13
-72z"/>
<path d="M14581 8747 c-16 -20 -4 -26 29 -14 22 8 32 8 44 -2 24 -20 19 -31
-15 -31 -43 0 -69 -17 -69 -45 0 -33 32 -50 71 -36 18 6 29 6 29 0 0 -5 5 -9
10 -9 6 0 10 28 10 65 0 53 -3 66 -19 75 -28 14 -76 13 -90 -3z m89 -82 c0
-16 -30 -35 -55 -35 -21 0 -31 30 -14 41 23 14 69 11 69 -6z"/>
<path d="M14748 8749 c-21 -12 -24 -42 -5 -57 6 -5 27 -13 45 -17 34 -7 44
-31 15 -37 -10 -2 -30 -1 -45 3 -21 6 -28 4 -28 -6 0 -23 66 -30 95 -11 43 28
28 60 -34 72 -22 5 -31 12 -29 23 3 12 14 15 42 14 26 -2 36 1 33 10 -5 15
-67 20 -89 6z"/>
<path d="M14888 8749 c-21 -12 -24 -42 -5 -57 6 -5 27 -13 45 -17 34 -7 44
-31 15 -37 -10 -2 -30 -1 -45 3 -20 6 -28 4 -28 -6 0 -12 29 -25 61 -25 9 0
27 8 39 18 19 15 21 22 11 40 -7 13 -25 24 -47 28 -25 5 -34 11 -32 23 3 12
13 15 42 14 26 -2 36 1 33 10 -5 15 -67 20 -89 6z"/>
<path d="M15000 8753 c1 -26 50 -138 61 -138 7 0 23 25 35 55 l22 55 11 -30
c27 -71 34 -85 45 -85 7 0 24 34 39 76 30 85 16 99 -16 15 -11 -28 -23 -48
-27 -44 -4 4 -15 30 -24 56 -10 26 -23 46 -29 44 -5 -1 -19 -27 -30 -56 -11
-28 -23 -48 -27 -44 -4 4 -15 29 -24 56 -10 26 -22 47 -27 47 -5 0 -9 -3 -9
-7z"/>
<path d="M15271 8734 c-34 -43 -24 -86 26 -113 46 -24 103 14 103 69 0 66 -89
95 -129 44z m93 -17 c20 -30 10 -66 -22 -74 -32 -8 -56 7 -60 39 -6 52 55 78
82 35z"/>
<path d="M15440 8684 c0 -56 3 -75 13 -72 6 3 13 20 15 39 4 59 11 76 32 82
22 6 28 27 7 27 -7 0 -18 -5 -25 -12 -9 -9 -12 -9 -12 0 0 7 -7 12 -15 12 -12
0 -15 -15 -15 -76z"/>
</g>
</svg>
